<?xml version="1.0" encoding="UTF-8"?>
<svg width="52px" height="32px" viewBox="0 0 52 32" version="1.1" xmlns="http://www.w3.org/2000/svg" xmlns:xlink="http://www.w3.org/1999/xlink">
    <!-- Generator: Sketch 57.1 (83088) - https://sketch.com -->
    <title>Payment / AmericanExpress</title>
    <desc>Created with Sketch.</desc>
    <g id="4.-Shopping-cart" stroke="none" stroke-width="1" fill="none" fill-rule="evenodd">
        <g id="4.-Desktop-/-Shopping-cart---1-" transform="translate(-983.000000, -657.000000)">
            <g id="Basket--Modal" transform="translate(712.000000, 210.000000)">
                <g id="Payment-options" transform="translate(147.000000, 446.000000)">
                    <g id="4.-Icons-/-Payment-/-AmericanExpress-/-Large" transform="translate(124.000000, 1.000000)">
                        <rect id="Rectangle" stroke="#E9E9E9" stroke-width="0.533333333" fill="#FFFFFF" x="0.266666667" y="0.266666667" width="51.4666667" height="31.4666667" rx="2.13333333"></rect>
                        <g id="Logo" stroke-width="1" transform="translate(7.000000, 9.000000)" fill="#0072CE">
                            <path d="M37.2435398,9.19539869 L35.3356977,9.19539869 C35.1452173,9.19539869 35.0186707,9.20242255 34.9120704,9.27331147 C34.8016393,9.34315982 34.7591048,9.44682674 34.7591048,9.58366187 C34.7591048,9.74638121 34.8523636,9.85707198 34.9880248,9.90493826 C35.0984558,9.94278904 35.2170768,9.95384511 35.3914416,9.95384511 L35.9587879,9.96880333 C36.5312858,9.98272097 36.9134354,10.0796242 37.1464503,10.3159639 C37.1888526,10.348872 37.2143469,10.3858123 37.2435398,10.4227526 L37.2435398,9.19539869 Z M37.2435398,12.03915 C36.9892577,12.4053011 36.4937709,12.590913 35.8229946,12.590913 L33.8014191,12.590913 L33.8014191,11.6659752 L35.8148048,11.6659752 C36.0145318,11.6659752 36.1542878,11.6400909 36.2384321,11.5591865 C36.3113483,11.4924599 36.3622047,11.3955567 36.3622047,11.277842 C36.3622047,11.1521931 36.3113483,11.0524283 36.2343372,10.9925954 C36.1583828,10.9267793 36.0478196,10.8968629 35.8655291,10.8968629 C34.8826133,10.8639548 33.6563793,10.9267793 33.6563793,9.56180987 C33.6563793,8.93616636 34.0597961,8.27761479 35.1582947,8.27761479 L37.2434077,8.27761479 L37.2434077,7.41940359 L35.3061085,7.41940359 C34.7214579,7.41940359 34.2967738,7.55727929 33.9959944,7.77163698 L33.9959944,7.41940359 L31.1304666,7.41940359 C30.6722305,7.41940359 30.1343413,7.53126501 29.8799272,7.77163698 L29.8799272,7.41940359 L24.7628471,7.41940359 L24.7628471,7.77163698 C24.3555995,7.48235816 23.6684435,7.41940359 23.3512844,7.41940359 L19.9760036,7.41940359 L19.9760036,7.77163698 C19.6538249,7.4644083 18.9373439,7.41940359 18.5006392,7.41940359 L14.7231303,7.41940359 L13.8587034,8.34056935 L13.0490957,7.41940359 L7.40627918,7.41940359 L7.40627918,13.4380681 L12.9428916,13.4380681 L13.8336054,12.5023344 L14.6726702,13.4380681 L18.0854659,13.4410598 L18.0854659,12.0252324 L18.4209861,12.0252324 C18.8738064,12.0321262 19.4078648,12.0141763 19.8790462,11.8136062 L19.8790462,13.437938 L22.6939818,13.437938 L22.6939818,11.8692768 L22.829775,11.8692768 C23.0030831,11.8692768 23.0201233,11.8763006 23.0201233,12.0468243 L23.0201233,13.437808 L31.5713983,13.437808 C32.1143071,13.437808 32.6817854,13.3009728 32.9960384,13.0526665 L32.9960384,13.437808 L35.7084686,13.437808 C36.2729088,13.437808 36.8241395,13.3598952 37.2435398,13.1603656 L37.2435398,12.03915 L37.2435398,12.03915 Z M33.0678979,10.3159639 C33.2717198,10.523688 33.380962,10.785912 33.380962,11.2298457 C33.380962,12.1577752 32.7922165,12.590913 31.7365166,12.590913 L29.6976366,12.590913 L29.6976366,11.6659752 L31.7283267,11.6659752 C31.9268649,11.6659752 32.0676777,11.6400909 32.1559169,11.5591865 C32.2279084,11.4924599 32.2795574,11.3955567 32.2795574,11.277842 C32.2795574,11.1521931 32.2236814,11.0524283 32.1518219,10.9925954 C32.0717726,10.9267793 31.9613415,10.8968629 31.779051,10.8968629 C30.800098,10.8639548 29.5741282,10.9267793 29.5741282,9.56180987 C29.5741282,8.93616636 29.973318,8.27761479 31.0707598,8.27761479 L33.1693465,8.27761479 L33.1693465,9.19565884 L31.2490875,9.19565884 C31.0587392,9.19565884 30.9349666,9.20268269 30.8296872,9.27357161 C30.7150291,9.34341996 30.6724947,9.44708688 30.6724947,9.58392201 C30.6724947,9.74664135 30.7698484,9.85733212 30.9015467,9.9051984 C31.0119778,9.94304919 31.1305987,9.95410526 31.3089264,9.95410526 L31.8724419,9.96906347 C32.4407128,9.98272097 32.8307881,10.0794941 33.0678979,10.3159639 L33.0678979,10.3159639 Z M23.6220783,10.0495777 C23.482058,10.1313926 23.308882,10.1384165 23.1051922,10.1384165 L21.8335176,10.1384165 L21.8335176,9.16964455 L23.1224966,9.16964455 C23.308882,9.16964455 23.4953996,9.17354669 23.6220783,9.24755733 C23.7577394,9.31740568 23.8388455,9.45098902 23.8388455,9.63556036 C23.8388455,9.8201317 23.7577394,9.96880333 23.6220783,10.0495777 L23.6220783,10.0495777 Z M24.254283,10.5863824 C24.4872978,10.6710589 24.6777782,10.8228522 24.7670742,10.9485012 C24.914888,11.1590868 24.9362873,11.3556248 24.9405144,11.7358235 L24.9405144,12.590913 L23.8895698,12.590913 L23.8895698,12.0512467 C23.8895698,11.7917542 23.914932,11.4075232 23.7203567,11.2069531 C23.5673912,11.0524283 23.3342442,11.015488 22.9523588,11.015488 L21.8336497,11.015488 L21.8336497,12.590913 L20.7817805,12.590913 L20.7817805,8.27748472 L23.1985831,8.27748472 C23.7285465,8.27748472 24.1145269,8.30050736 24.4581049,8.48104648 C24.7884735,8.67758439 24.9962583,8.94683222 24.9962583,9.43889238 C24.9961262,10.1273604 24.5298323,10.4786833 24.254283,10.5863824 L24.254283,10.5863824 Z M25.5766819,8.27748472 L29.0704516,8.27748472 L29.0704516,9.16951448 L26.6191723,9.16951448 L26.6191723,9.95371504 L29.0106127,9.95371504 L29.0106127,10.8337782 L26.6191723,10.8337782 L26.6191723,11.6919894 L29.0704516,11.6958916 L29.0704516,12.590913 L25.5766819,12.590913 L25.5766819,8.27748472 L25.5766819,8.27748472 Z M18.5139807,10.2680977 L17.1612001,10.2680977 L17.1612001,9.16964455 L18.5261334,9.16964455 C18.904056,9.16964455 19.1663959,9.32130782 19.1663959,9.69851493 C19.1663959,10.0715597 18.9162087,10.2680977 18.5139807,10.2680977 L18.5139807,10.2680977 Z M16.1185775,12.1986176 L14.5113827,10.4416129 L16.1185775,8.74040888 L16.1185775,12.1986176 L16.1185775,12.1986176 Z M11.9680336,11.6919894 L9.39430268,11.6919894 L9.39430268,10.8337782 L11.6924843,10.8337782 L11.6924843,9.95371504 L9.39430268,9.95371504 L9.39430268,9.16951448 L12.0187579,9.16951448 L13.1637538,10.4265246 L11.9680336,11.6919894 L11.9680336,11.6919894 Z M20.2902566,9.69851493 C20.2902566,10.8967328 19.3823705,11.1441286 18.4673513,11.1441286 L17.1612001,11.1441286 L17.1612001,12.590913 L15.1265472,12.590913 L13.8375682,11.162989 L12.497997,12.590913 L8.35154803,12.590913 L8.35154803,8.27748472 L12.5617987,8.27748472 L13.8497209,9.691361 L15.1812343,8.27748472 L18.5261334,8.27748472 C19.3568763,8.27748472 20.2902566,8.50393905 20.2902566,9.69851493 L20.2902566,9.69851493 Z" id="EXPRESS"></path>
                            <path d="M3.35718387,3.30667552 L2.64070284,1.58752162 L1.92831675,3.30667552 L3.35718387,3.30667552 Z M19.1411658,2.62210966 C18.9973148,2.70808686 18.827177,2.71094843 18.623355,2.71094843 L17.3516805,2.71094843 L17.3516805,1.75310253 L18.6406594,1.75310253 C18.823082,1.75310253 19.0134303,1.76116696 19.1370709,1.83088524 C19.2728641,1.89370973 19.3568763,2.02742315 19.3568763,2.21212456 C19.3568763,2.40059804 19.276959,2.55226131 19.1411658,2.62210966 L19.1411658,2.62210966 Z M28.2131577,3.30667552 L27.488751,1.58752162 L26.7683071,3.30667552 L28.2131577,3.30667552 L28.2131577,3.30667552 Z M11.302409,5.16747718 L10.2292725,5.16747718 L10.2253097,1.79004281 L8.70741084,5.16747718 L7.78829672,5.16747718 L6.26643501,1.78705117 L6.26643501,5.16747718 L4.13733449,5.16747718 L3.73510648,4.20559907 L1.55554583,4.20559907 L1.14922289,5.16747718 L0.0122847964,5.16747718 L1.88683905,0.855089483 L3.44212069,0.855089483 L5.2224915,4.9380312 L5.2224915,0.855089483 L6.93100286,0.855089483 L8.3009558,3.78052568 L9.55942091,0.855089483 L11.3022769,0.855089483 L11.3022769,5.16747718 L11.302409,5.16747718 Z M15.5794995,5.16747718 L12.0825596,5.16747718 L12.0825596,0.855089483 L15.5794995,0.855089483 L15.5794995,1.75310253 L13.1294092,1.75310253 L13.1294092,2.53040931 L15.5207174,2.53040931 L15.5207174,3.41437465 L13.1294092,3.41437465 L13.1294092,4.27557749 L15.5794995,4.27557749 L15.5794995,5.16747718 L15.5794995,5.16747718 Z M20.510062,2.01649715 C20.510062,2.70405465 20.0440323,3.05927968 19.7724458,3.16593824 C20.0014978,3.25178538 20.1971299,3.40344865 20.2902566,3.52909764 C20.4380704,3.7435854 20.4635647,3.93518059 20.4635647,4.32032205 L20.4635647,5.16747718 L19.4077327,5.16747718 L19.4037698,4.62364859 C19.4037698,4.36415612 19.4289999,3.99098123 19.2385195,3.78351732 C19.085554,3.63185405 18.852407,3.59894599 18.4755412,3.59894599 L17.3518126,3.59894599 L17.3518126,5.16747718 L16.3050951,5.16747718 L16.3050951,0.855089483 L18.7127831,0.855089483 C19.2477661,0.855089483 19.6419364,0.869007124 19.9803627,1.06164289 C20.3115238,1.25427866 20.510062,1.53549306 20.510062,2.01649715 L20.510062,2.01649715 Z M22.1852855,5.16747718 L21.1171687,5.16747718 L21.1171687,0.855089483 L22.1852855,0.855089483 L22.1852855,5.16747718 L22.1852855,5.16747718 Z M34.5768143,5.16747718 L33.0933921,5.16747718 L31.1091994,1.93078009 L31.1091994,5.16747718 L28.9773249,5.16747718 L28.5699452,4.20559907 L26.3954041,4.20559907 L26.0001771,5.16747718 L24.775264,5.16747718 C24.2664357,5.16747718 23.6222104,5.05665633 23.2573652,4.6905053 C22.8894817,4.32435427 22.6980767,3.82839196 22.6980767,3.0441914 C22.6980767,2.40463025 22.8124706,1.81995924 23.2623848,1.35794557 C23.6008111,1.01377661 24.1307746,0.855089483 24.8521431,0.855089483 L25.8655727,0.855089483 L25.8655727,1.77911682 L24.8734103,1.77911682 C24.4913928,1.77911682 24.2756823,1.83504752 24.0678975,2.03457708 C23.8894377,2.21615677 23.7669861,2.55941524 23.7669861,3.0114134 C23.7669861,3.47342707 23.8602448,3.80653996 24.0548202,4.02414944 C24.2159756,4.19480314 24.5088293,4.24657156 24.7843786,4.24657156 L25.2545032,4.24657156 L26.7298676,0.855219554 L28.2983587,0.855219554 L30.0706717,4.93412906 L30.0706717,0.855219554 L31.664525,0.855219554 L33.5046026,3.85856853 L33.5046026,0.855219554 L34.5768143,0.855219554 L34.5768143,5.16747718 L34.5768143,5.16747718 Z M0.000132094585,6.01450224 L1.78869277,6.01450224 L2.19197754,5.05665633 L3.09484403,5.05665633 L3.49707204,6.01450224 L7.01620387,6.01450224 L7.01620387,5.28220017 L7.33032479,6.01762395 L9.1571929,6.01762395 L9.47131382,5.27127417 L9.47131382,6.01450224 L18.2170321,6.01450224 L18.2129372,4.44219897 L18.3821503,4.44219897 C18.5006392,4.44623118 18.5352479,4.45702711 18.5352479,4.64966288 L18.5352479,6.01450224 L23.0585628,6.01450224 L23.0585628,5.64848127 C23.4234081,5.84098697 23.9908864,6.01450224 24.7376171,6.01450224 L26.6405717,6.01450224 L27.0478193,5.05665633 L27.9506858,5.05665633 L28.3489509,6.01450224 L32.0160287,6.01450224 L32.0160287,5.10465269 L32.5713543,6.01450224 L35.5099305,6.01450224 L35.5099305,8.8817842e-16 L32.6017361,8.8817842e-16 L32.6017361,0.710319998 L32.1944885,8.8817842e-16 L29.2103397,8.8817842e-16 L29.2103397,0.710319998 L28.8363799,8.8817842e-16 L24.8055137,8.8817842e-16 C24.1307746,8.8817842e-16 23.5376699,0.092740919 23.0585628,0.351192821 L23.0585628,8.8817842e-16 L20.276915,8.8817842e-16 L20.276915,0.351192821 C19.9720407,0.0848065627 19.5566033,8.8817842e-16 19.0946685,8.8817842e-16 L8.93223582,8.8817842e-16 L8.25036358,1.55344291 L7.55013018,8.8817842e-16 L4.3492142,8.8817842e-16 L4.3492142,0.710319998 L3.99757842,8.8817842e-16 L1.26771173,8.8817842e-16 L5.68434189e-13,2.85962006 L5.68434189e-13,6.01450224 L0.000132094585,6.01450224 Z" id="AMERICAN"></path>
                        </g>
                    </g>
                </g>
            </g>
        </g>
    </g>
</svg>