<?xml version="1.0" encoding="UTF-8"?>
<svg width="52px" height="32px" viewBox="0 0 52 32" version="1.1" xmlns="http://www.w3.org/2000/svg" xmlns:xlink="http://www.w3.org/1999/xlink">
    <!-- Generator: Sketch 57.1 (83088) - https://sketch.com -->
    <title>Payment / MasterCard</title>
    <desc>Created with Sketch.</desc>
    <g id="4.-Shopping-cart" stroke="none" stroke-width="1" fill="none" fill-rule="evenodd">
        <g id="4.-Desktop-/-Shopping-cart---1-" transform="translate(-921.000000, -657.000000)">
            <g id="Basket--Modal" transform="translate(712.000000, 210.000000)">
                <g id="Payment-options" transform="translate(147.000000, 446.000000)">
                    <g id="4.-Icons-/-Payment-/-MasterCard-/-Large" transform="translate(62.000000, 1.000000)">
                        <rect id="Rectangle" stroke="#E9E9E9" stroke-width="0.533333333" fill="#FFFFFF" x="0.266666667" y="0.266666667" width="51.4666667" height="31.4666667" rx="2.13333333"></rect>
                        <g id="Logo" stroke-width="1" transform="translate(8.000000, 6.000000)">
                            <path d="M21.0762653,10.4081145 C21.0762653,16.1565175 16.3584739,20.8159 10.5383824,20.8159 C4.71812442,20.8159 2.28261854e-12,16.1565175 2.28261854e-12,10.4081145 C2.28261854e-12,4.65987597 4.71812442,3.55271368e-15 10.5383824,3.55271368e-15 C16.3584739,3.55271368e-15 21.0762653,4.65987597 21.0762653,10.4081145" id="Fill-333" fill="#CC0000"></path>
                            <path d="M24.6864273,3.55271368e-15 C21.9629016,3.55271368e-15 19.4821851,1.02026793 17.6116555,2.69401392 C17.2311213,3.03514494 16.8759005,3.40357959 16.5479916,3.79586381 L18.6771512,3.79586381 C18.9679227,4.14554777 19.2358787,4.51316003 19.4805197,4.89820713 L15.7444566,4.89820713 C15.5209656,5.25200309 15.317792,5.61961534 15.1372673,6.00055046 L20.087376,6.00055046 C20.2565763,6.35730705 20.4054593,6.72475482 20.5336918,7.10240034 L14.6909514,7.10240034 C14.5693803,7.46129517 14.4667943,7.82907191 14.3848587,8.20408575 L20.8394514,8.20408575 C20.9939966,8.9146383 21.0762653,9.65183656 21.0762653,10.4081145 C21.0762653,11.5635848 20.8855818,12.6757969 20.5336918,13.7144865 L14.6909514,13.7144865 C14.819184,14.0918031 14.9680669,14.4597443 15.1369342,14.8169943 L20.087376,14.8169943 C19.9065182,15.1969426 19.7043438,15.5648838 19.4795205,15.9191732 L15.7444566,15.9191732 C15.9880984,16.3030689 16.2565541,16.6711746 16.5479916,17.0203652 L18.6764851,17.0203652 C18.3492423,17.4129783 17.9936885,17.781413 17.6119886,18.122544 C19.4823516,19.79629 21.9629016,20.8159 24.6864273,20.8159 C30.5063523,20.8159 35.2243102,16.1565175 35.2243102,10.4081145 C35.2243102,4.66036941 30.5063523,3.55271368e-15 24.6864273,3.55271368e-15" id="Fill-334" fill="#FF9900"></path>
                            <path d="M8.07748363,11.5476302 C7.95741135,11.5341429 7.90445298,11.5298664 7.82201778,11.5298664 C7.17352756,11.5298664 6.84561866,11.7496114 6.84561866,12.1836734 C6.84561866,12.450953 7.00565952,12.6208606 7.25546315,12.6208606 C7.72159672,12.6208606 8.05749934,12.1826866 8.07748363,11.5476302 L8.07748363,11.5476302 Z M8.90966278,13.4606943 L7.96140821,13.4606943 L7.98322439,13.0157765 C7.69411832,13.3671053 7.30825498,13.5348746 6.78416697,13.5348746 C6.1643209,13.5348746 5.73915512,13.0568965 5.73915512,12.3622985 C5.73915512,11.3167007 6.47840733,10.7069742 7.7475763,10.7069742 C7.87764072,10.7069742 8.0438434,10.7188167 8.21404294,10.7400346 C8.24934852,10.5982531 8.25867452,10.5380535 8.25867452,10.4615704 C8.25867452,10.1773494 8.05949776,10.0707665 7.52508453,10.0707665 C6.96535787,10.0651742 6.50372076,10.2028437 6.31403654,10.2643592 C6.32602711,10.192975 6.47274511,9.29869853 6.47274511,9.29869853 C7.04263046,9.13323189 7.41866819,9.0713875 7.84183554,9.0713875 C8.82439648,9.0713875 9.34482071,9.5069299 9.34365496,10.3303156 C9.34565338,10.5512119 9.30851591,10.8227679 9.25106108,11.1810049 C9.15180577,11.8027383 8.93864,13.1361757 8.90966278,13.4606943 L8.90966278,13.4606943 Z" id="Fill-336" fill="#000066"></path>
                            <polyline id="Fill-337" fill="#000066" points="5.26036483 13.4606943 4.11609767 13.4606943 4.77191547 9.40264973 3.30823273 13.4606943 2.52867887 13.4606943 2.43225467 9.42534794 1.7434628 13.4606943 0.672637906 13.4606943 1.56710144 8.18138754 3.21230814 8.18138754 3.31172998 11.1364308 4.31544097 8.18138754 6.14516928 8.18138754 5.26036483 13.4606943"></polyline>
                            <path d="M26.0999828,11.5476302 C25.9799105,11.5341429 25.9276183,11.5298664 25.8453496,11.5298664 C25.1963598,11.5298664 24.868784,11.7496114 24.868784,12.1836734 C24.868784,12.450953 25.0281587,12.6208606 25.2786285,12.6208606 C25.744429,12.6208606 26.0804981,12.1826866 26.0999828,11.5476302 L26.0999828,11.5476302 Z M26.9326616,13.4606943 L25.9847401,13.4606943 L26.0062232,13.0157765 C25.7171171,13.3671053 25.3314203,13.5348746 24.8076654,13.5348746 C24.1869866,13.5348746 23.7623204,13.0568965 23.7623204,12.3622985 C23.7623204,11.3167007 24.5019057,10.7069742 25.7707416,10.7069742 C25.9006395,10.7069742 26.0665091,10.7188167 26.2368752,10.7400346 C26.2723473,10.5982531 26.2815068,10.5380535 26.2815068,10.4615704 C26.2815068,10.1773494 26.08233,10.0707665 25.5479168,10.0707665 C24.9881901,10.0651742 24.5267196,10.2028437 24.3363692,10.2643592 C24.3490259,10.192975 24.496077,9.29869853 24.496077,9.29869853 C25.0656292,9.13323189 25.4420001,9.0713875 25.8645013,9.0713875 C26.8477283,9.0713875 27.3674864,9.5069299 27.3664872,10.3303156 C27.3684856,10.5512119 27.3316812,10.8227679 27.2738933,11.1810049 C27.1749711,11.8027383 26.9613057,13.1361757 26.9326616,13.4606943 L26.9326616,13.4606943 Z" id="Fill-338" fill="#000066"></path>
                            <path d="M13.9939993,13.3953958 C13.6807456,13.4927678 13.4367707,13.5348746 13.1719788,13.5348746 C12.5872718,13.5348746 12.2680228,13.2029545 12.2680228,12.5915832 C12.2598625,12.4017736 12.3521233,11.9025775 12.4247329,11.4472976 C12.4910142,11.0461315 12.9210095,8.51741969 12.9210095,8.51741969 L14.0579491,8.51741969 L13.9252201,9.1672792 L14.61218,9.1672792 L14.4571352,10.1992252 L13.7678438,10.1992252 C13.6357809,11.0155382 13.447429,12.032681 13.445264,12.1675544 C13.445264,12.3889442 13.5648367,12.4856583 13.8371226,12.4856583 C13.9675201,12.4856583 14.0684408,12.4724999 14.1455469,12.4451963 L13.9939993,13.3953958" id="Fill-339" fill="#000066"></path>
                            <path d="M17.4805918,13.3606906 C17.089899,13.4786226 16.7133616,13.5361905 16.3138424,13.5348746 C15.0406765,13.5332298 14.3770316,12.8769556 14.3770316,11.6195079 C14.3770316,10.1520195 15.2212013,9.0713875 16.3674669,9.0713875 C17.3048966,9.0713875 17.9039257,9.67634405 17.9039257,10.6247343 C17.9039257,10.940042 17.8629579,11.2472902 17.7635361,11.6808588 L15.4989829,11.6808588 C15.422543,12.3037437 15.8258926,12.5631282 16.4878722,12.5631282 C16.894386,12.5631282 17.2617639,12.4802304 17.669943,12.293217 L17.4805918,13.3606906 L17.4805918,13.3606906 Z M16.8414276,10.8155308 C16.8479225,10.7258894 16.961833,10.0490552 16.3118439,10.0490552 C15.9501283,10.0490552 15.6908321,10.3217626 15.585748,10.8155308 L16.8414276,10.8155308 L16.8414276,10.8155308 Z" id="Fill-340" fill="#000066"></path>
                            <path d="M9.59579009,10.5247306 C9.59579009,11.0673493 9.86224729,11.4418697 10.4667721,11.7232946 C10.929908,11.9385986 11.002018,12.0022523 11.002018,12.1971608 C11.002018,12.4644404 10.7975121,12.5858264 10.3450344,12.5858264 C10.0034696,12.5858264 9.68605246,12.532864 9.31984034,12.4159189 C9.31984034,12.4159189 9.16979163,13.3626643 9.16263059,13.4078963 C9.4225929,13.4634904 9.65441067,13.5153016 10.3531947,13.5348746 C11.5602458,13.5348746 12.1178075,13.0809105 12.1178075,12.0997888 C12.1178075,11.5099644 11.8846575,11.1637345 11.3114414,10.9031985 C10.831985,10.6859208 10.7765286,10.6372348 10.7765286,10.4368984 C10.7765286,10.2048175 10.9668789,10.0862276 11.3364218,10.0862276 C11.5610785,10.0862276 11.8676708,10.1099127 12.1586088,10.1505392 L12.3213142,9.15477874 C12.0252136,9.10823097 11.5759002,9.0713875 11.3144391,9.0713875 C10.0347783,9.0713875 9.59162669,9.73144476 9.59579009,10.5247306" id="Fill-341" fill="#000066"></path>
                            <path d="M23.0447179,9.18471406 C23.3624681,9.18471406 23.6592348,9.26629601 24.0670809,9.46975747 L24.2544336,8.32399149 C24.0862325,8.25885751 23.4965294,7.87709999 22.9969221,7.87709999 C22.2315238,7.87709999 21.5836997,8.25277176 21.1288906,8.87138012 C20.464746,8.65426684 20.1914608,9.09309883 19.857057,9.53061498 L19.5597907,9.59903856 C19.582273,9.45511877 19.6027569,9.31218587 19.5962621,9.1672792 L18.5450884,9.1672792 C18.4018676,10.4964401 18.1475675,11.8422135 17.9485573,13.1718678 L17.8964316,13.4606943 L19.0410319,13.4606943 C19.2320484,12.2346622 19.3364663,11.4499293 19.4000829,10.9183307 L19.8310775,10.6824667 C19.8958599,10.4454514 20.0968685,10.3658432 20.5012173,10.3755475 C20.4484255,10.655492 20.4197813,10.9504042 20.4197813,11.2555142 C20.4197813,12.6603358 21.1881773,13.5348746 22.4192096,13.5348746 C22.7364602,13.5348746 23.0089127,13.4937547 23.4307478,13.3802637 L23.6312568,12.1772587 C23.2518884,12.3613116 22.9412992,12.4479924 22.6596872,12.4479924 C21.9945434,12.4479924 21.5920265,11.9629416 21.5920265,11.1617607 C21.5920265,9.99905333 22.1902229,9.18471406 23.0447179,9.18471406" id="Fill-342" fill="#000066"></path>
                            <path d="M32.7307704,8.18138754 L32.4764703,9.70660832 C32.1642157,9.30017884 31.8281466,9.00576008 31.3844953,9.00576008 C30.8072824,9.00576008 30.2818621,9.43801288 29.9377992,10.0745495 C29.4586759,9.97635512 28.9635651,9.80940817 28.9635651,9.80940817 L28.963232,9.81352016 C29.0013687,9.45775045 29.0175227,9.24129509 29.0136923,9.1672792 L27.9626852,9.1672792 C27.8199641,10.4964401 27.5653309,11.8422135 27.3664872,13.1718678 L27.3138619,13.4606943 L28.4587952,13.4606943 C28.6133404,12.4698682 28.7314142,11.6461536 28.8185124,10.9938269 C29.2098715,10.6444719 29.4057175,10.3406778 29.8002407,10.3604154 C29.6252116,10.7785229 29.5231252,11.2597907 29.5231252,11.7535589 C29.5231252,12.8264603 30.0723601,13.5348746 30.9043727,13.5348746 C31.3237098,13.5348746 31.6454568,13.3919417 31.9592102,13.0610085 L31.9052526,13.4603653 L32.987735,13.4603653 L33.8592166,8.18138754 L32.7307704,8.18138754 L32.7307704,8.18138754 Z M31.3000617,12.4688813 C30.9107011,12.4688813 30.7135228,12.1836734 30.7135228,11.6224685 C30.7135228,10.7785229 31.0820664,10.18031 31.6008253,10.18031 C31.9940162,10.18031 32.2071819,10.4757157 32.2071819,11.0211305 C32.2071819,11.8723133 31.8324765,12.4688813 31.3000617,12.4688813 L31.3000617,12.4688813 Z" id="Fill-343" fill="#000066"></path>
                            <polyline id="Fill-344" fill="#FFFFFF" points="5.58943948 13.1473603 4.44550539 13.1473603 5.10115665 9.0893158 3.63780699 13.1473603 2.85792006 13.1473603 2.76166239 9.1128364 2.07270398 13.1473603 1.00187909 13.1473603 1.89634262 7.86854705 3.54154932 7.86854705 3.58751319 11.1364308 4.69764052 7.86854705 6.47441047 7.86854705 5.58943948 13.1473603"></polyline>
                            <path d="M8.40672481,11.2349542 C8.28681907,11.2211379 8.2338607,11.2173549 8.1514255,11.2173549 C7.50293528,11.2173549 7.17485984,11.4367709 7.17485984,11.870504 C7.17485984,12.1374546 7.33506724,12.3083491 7.5850374,12.3083491 C8.05100444,12.3083491 8.38690705,11.870175 8.40672481,11.2349542 L8.40672481,11.2349542 Z M9.23873743,13.1473603 L8.29098246,13.1473603 L8.31263211,12.7027716 C8.02352604,13.0539358 7.6376627,13.2218697 7.11357469,13.2218697 C6.49356208,13.2218697 6.06856284,12.7432336 6.06856284,12.0488 C6.06856284,11.0030378 6.80798158,10.3941337 8.07715055,10.3941337 C8.20688191,10.3941337 8.37308459,10.4058118 8.54345066,10.4275231 C8.57875624,10.2854126 8.58808224,10.2250485 8.58808224,10.1482365 C8.58808224,9.86417993 8.38890548,9.75841944 7.85449225,9.75841944 C7.29459905,9.75184025 6.83312848,9.88950981 6.64327772,9.95086076 C6.65543483,9.8798055 6.80198629,8.98552907 6.80198629,8.98552907 C7.37203818,8.8203914 7.74807591,8.75805357 8.17124325,8.75805357 C9.15363766,8.75805357 9.67389535,9.1940894 9.67306267,10.0171461 C9.67489457,10.2377135 9.63809017,10.5105854 9.5804688,10.8678354 C9.48104695,11.4890754 9.26788119,12.8233352 9.23873743,13.1473603 L9.23873743,13.1473603 Z" id="Fill-345" fill="#FFFFFF"></path>
                            <path d="M24.5835082,8.01065756 L24.3961555,9.15625906 C23.9876433,8.95345552 23.6917093,8.87138012 23.3742921,8.87138012 C22.5201303,8.87138012 21.9209346,9.68670627 21.9209346,10.8495781 C21.9209346,11.650759 22.3236181,12.134823 22.9887619,12.134823 C23.2705404,12.134823 23.5817957,12.0488 23.9603315,11.8640893 L23.7593228,13.0670942 C23.3381539,13.1804208 23.0655349,13.2218697 22.7484508,13.2218697 C21.5165858,13.2218697 20.7493556,12.3471663 20.7493556,10.9426737 C20.7493556,9.05543297 21.8100218,7.7364698 23.3261633,7.7364698 C23.8257706,7.7364698 24.4158067,7.94552357 24.5835082,8.01065756" id="Fill-346" fill="#FFFFFF"></path>
                            <path d="M26.4290575,11.2349542 C26.3098179,11.2211379 26.256693,11.2173549 26.1744243,11.2173549 C25.5262671,11.2173549 25.1980252,11.4367709 25.1980252,11.870504 C25.1980252,12.1374546 25.358066,12.3083491 25.6078697,12.3083491 C26.0736702,12.3083491 26.4099058,11.870175 26.4290575,11.2349542 L26.4290575,11.2349542 Z M27.2617362,13.1473603 L26.3139813,13.1473603 L26.3354644,12.7027716 C26.0463583,13.0539358 25.660495,13.2218697 25.1369066,13.2218697 C24.5162278,13.2218697 24.0917282,12.7432336 24.0917282,12.0488 C24.0917282,11.0030378 24.8304808,10.3941337 26.0999828,10.3941337 C26.2297142,10.3941337 26.3955838,10.4058118 26.5657833,10.4275231 C26.6012554,10.2854126 26.6105814,10.2250485 26.6105814,10.1482365 C26.6105814,9.86417993 26.4119043,9.75841944 25.877158,9.75841944 C25.3177644,9.75184025 24.8564603,9.88950981 24.6662765,9.95086076 C24.6782671,9.8798055 24.8249851,8.98552907 24.8249851,8.98552907 C25.395037,8.8203914 25.7707416,8.75805357 26.193909,8.75805357 C27.1763034,8.75805357 27.6970607,9.1940894 27.6957284,10.0171461 C27.6980599,10.2377135 27.6609224,10.5105854 27.6033011,10.8678354 C27.5042123,11.4890754 27.2910465,12.8233352 27.2617362,13.1473603 L27.2617362,13.1473603 Z" id="Fill-347" fill="#FFFFFF"></path>
                            <path d="M14.323074,13.0822264 C14.0101533,13.1795984 13.7658453,13.2218697 13.5013866,13.2218697 C12.916513,13.2218697 12.5970974,12.889785 12.5970974,12.2790717 C12.5891037,12.0886041 12.6815311,11.5902305 12.7543072,11.1344571 C12.8200888,10.732962 13.2502506,8.20457919 13.2502506,8.20457919 L14.3875233,8.20457919 L14.2544612,8.85427423 L14.8383356,8.85427423 L14.6827912,9.88589126 L14.097085,9.88589126 C13.9650221,10.7030267 13.7766702,11.7195116 13.7743387,11.854385 C13.7743387,12.0764326 13.8944109,12.1724888 14.1663638,12.1724888 C14.2967613,12.1724888 14.3975155,12.1598239 14.4749546,12.1318623 L14.323074,13.0822264" id="Fill-348" fill="#FFFFFF"></path>
                            <path d="M17.8103326,13.048179 C17.4194732,13.16644 17.0421032,13.2221986 16.6430835,13.2218697 C15.3697512,13.2210473 14.7066058,12.5639506 14.7066058,11.3066674 C14.7066058,9.83868557 15.550609,8.75805357 16.6960419,8.75805357 C17.6344709,8.75805357 18.2331669,9.36301011 18.2331669,10.3125517 C18.2331669,10.6272015 18.191533,10.9342852 18.0932769,11.3680183 L15.8283906,11.3680183 C15.7516177,11.9909032 16.1554669,12.2507812 16.8167803,12.2507812 C17.2236272,12.2507812 17.5908385,12.1675544 17.9995173,11.9800475 L17.8103326,13.048179 L17.8103326,13.048179 Z M17.1710019,10.5021969 C17.1771637,10.412391 17.2915738,9.73588572 16.6417513,9.73588572 C16.2797025,9.73588572 16.0204064,10.0090866 15.9149892,10.5021969 L17.1710019,10.5021969 L17.1710019,10.5021969 Z" id="Fill-349" fill="#FFFFFF"></path>
                            <path d="M9.92486473,10.2113967 C9.92486473,10.7550023 10.191655,11.1287003 10.7963463,11.4104541 C11.2594823,11.6255936 11.3312592,11.6892473 11.3312592,11.8843203 C11.3312592,12.1519289 11.1269198,12.272657 10.6741091,12.272657 C10.3328773,12.272657 10.0152936,12.2203524 9.64891499,12.1037363 C9.64891499,12.1037363 9.49903281,13.0498238 9.49203831,13.0943979 C9.75183409,13.1506499 9.98381839,13.2019676 10.6822693,13.2218697 C11.8896535,13.2218697 12.4472152,12.76807 12.4472152,11.7869483 C12.4472152,11.1967949 12.2137321,10.8507295 11.6406826,10.5908515 C11.1610596,10.3729158 11.1059363,10.3247232 11.1059363,10.1240579 C11.1059363,9.89197701 11.2961201,9.7725647 11.665996,9.7725647 C11.8901532,9.7725647 12.1970785,9.79723667 12.48785,9.83769869 L12.6507219,8.84210272 C12.3544548,8.79588391 11.9054744,8.75805357 11.6438468,8.75805357 C10.363853,8.75805357 9.92103441,9.41827531 9.92486473,10.2113967" id="Fill-350" fill="#FFFFFF"></path>
                            <path d="M33.3169762,13.1473603 L32.2348269,13.1473603 L32.2884514,12.747839 C31.9745315,13.0789368 31.652951,13.2218697 31.2336139,13.2218697 C30.4022675,13.2218697 29.8521999,12.5142778 29.8521999,11.4402249 C29.8521999,10.0122117 30.7050295,8.80854885 31.7137365,8.80854885 C32.1573878,8.80854885 32.4932904,8.98750283 32.806211,9.39409678 L33.0600115,7.86854705 L34.1882913,7.86854705 L33.3169762,13.1473603 L33.3169762,13.1473603 Z M31.6291363,12.1553829 C32.1622173,12.1553829 32.5362566,11.5591438 32.5362566,10.7087835 C32.5362566,10.1632041 32.3232574,9.8668116 31.9300665,9.8668116 C31.411141,9.8668116 31.042764,10.465189 31.042764,11.3094635 C31.042764,11.8713264 31.2401088,12.1553829 31.6291363,12.1553829 L31.6291363,12.1553829 Z" id="Fill-351" fill="#FFFFFF"></path>
                            <path d="M28.2922595,8.85427423 C28.1492053,10.1831062 27.8947386,11.5288795 27.6957284,12.8586984 L27.6436027,13.1473603 L28.7878699,13.1473603 C29.1972147,10.5219345 29.2956374,10.00958 29.9377992,10.0735627 C30.0398857,9.53620729 30.230236,9.06563071 30.3719579,8.8284509 C29.8928346,8.72976305 29.6252116,8.99720713 29.2744873,9.50544958 C29.3024653,9.28554015 29.3529257,9.0722099 29.3434331,8.85427423 L28.2922595,8.85427423" id="Fill-352" fill="#FFFFFF"></path>
                            <path d="M18.8748292,8.85427423 C18.7311088,10.1831062 18.4763091,11.5288795 18.277632,12.8586984 L18.2256728,13.1473603 L19.370273,13.1473603 C19.7797845,10.5219345 19.877874,10.00958 20.5190367,10.0735627 C20.6217892,9.53620729 20.8124727,9.06563071 20.9538615,8.8284509 C20.4752378,8.72976305 20.2071152,8.99720713 19.857057,9.50544958 C19.884702,9.28554015 19.9354954,9.0722099 19.9255032,8.85427423 L18.8748292,8.85427423" id="Fill-353" fill="#FFFFFF"></path>
                        </g>
                    </g>
                </g>
            </g>
        </g>
    </g>
</svg>