<?xml version="1.0" encoding="UTF-8"?>
<svg width="52px" height="32px" viewBox="0 0 52 32" version="1.1" xmlns="http://www.w3.org/2000/svg" xmlns:xlink="http://www.w3.org/1999/xlink">
    <!-- Generator: Sketch 57.1 (83088) - https://sketch.com -->
    <title>Payment / Visa</title>
    <desc>Created with Sketch.</desc>
    <g id="4.-Shopping-cart" stroke="none" stroke-width="1" fill="none" fill-rule="evenodd">
        <g id="4.-Desktop-/-Shopping-cart---1-" transform="translate(-859.000000, -657.000000)">
            <g id="Basket--Modal" transform="translate(712.000000, 210.000000)">
                <g id="Payment-options" transform="translate(147.000000, 446.000000)">
                    <g id="4.-Icons-/-Payment-/-Visa-/-Large" transform="translate(0.000000, 1.000000)">
                        <rect id="Rectangle" stroke="#E9E9E9" stroke-width="0.533333333" fill="#FFFFFF" x="0.266666667" y="0.266666667" width="51.4666667" height="31.4666667" rx="2.13333333"></rect>
                        <g id="Logo" stroke-width="1" transform="translate(9.000000, 11.000000)">
                            <polyline id="Fill-1" fill="#26337A" points="11.5508588 10.3499718 13.211217 0.177126761 15.8652398 0.177126761 14.2050335 10.3499718 11.5508588 10.3499718"></polyline>
                            <path d="M23.8320141,0.426816901 C23.3072511,0.222647887 22.4819295,1.77635684e-15 21.4538068,1.77635684e-15 C18.8298398,1.77635684e-15 16.9827711,1.38050704 16.9674395,3.35729577 C16.9507418,4.81953052 18.2854949,5.63500469 19.2917588,6.12101408 C20.3259534,6.61919249 20.6734172,6.93799061 20.6693187,7.38343662 C20.6621842,8.06475117 19.8438453,8.37693897 19.0807606,8.37693897 C18.01818,8.37693897 17.4536461,8.22324883 16.580812,7.8434554 L16.23942,7.68150235 L15.8682758,9.95861033 C16.4871531,10.2419531 17.6344366,10.4878873 18.8251341,10.5008075 C21.6138011,10.5008075 23.4258047,9.13697653 23.4470563,7.02602817 C23.4566195,5.86651643 22.7493962,4.98764319 21.2177621,4.26200939 C20.290281,3.7902723 19.7210414,3.47778404 19.7275687,3.00033803 C19.7281759,2.57757746 20.2084623,2.12492019 21.2479698,2.12492019 C22.1160982,2.11109859 22.7445387,2.30910798 23.2342366,2.51583099 L23.4725582,2.63211268 L23.8320141,0.426816901" id="Fill-2" fill="#26337A"></path>
                            <path d="M27.3660055,6.74328638 C27.5859597,6.15857277 28.4232733,3.89979343 28.4232733,3.89979343 C28.40779,3.92668545 28.6420131,3.31057277 28.77605,2.929277 L28.9551708,3.80664789 C28.9551708,3.80664789 29.4644505,6.23474178 29.5693424,6.74328638 L27.3660055,6.74328638 L27.3660055,6.74328638 Z M30.6402719,0.187492958 L28.5891876,0.187492958 C27.9530054,0.187492958 27.4768175,0.367474178 27.1981178,1.03076056 L23.2567026,10.3535775 L26.044307,10.3535775 C26.044307,10.3535775 26.4990915,9.09941784 26.6023136,8.82418779 C26.9063635,8.82418779 29.6150334,8.82944601 30.0016609,8.82944601 C30.0812027,9.1844507 30.3248372,10.3535775 30.3248372,10.3535775 L32.7882028,10.3535775 L30.6402719,0.187492958 L30.6402719,0.187492958 Z" id="Fill-3" fill="#26337A"></path>
                            <path d="M9.32429696,0.185690141 L6.72659088,7.12112676 L6.44834654,5.71132394 C5.96426516,4.08698592 4.45737401,2.32638498 2.77181751,1.44420657 L5.14835502,10.341108 L7.95721106,10.3394554 L12.1367961,0.185690141 L9.32429696,0.185690141" id="Fill-4" fill="#26337A"></path>
                            <path d="M4.31514,0.178779343 L0.0352169585,0.178779343 L9.21041021e-13,0.389558685 C3.33027954,1.23222535 5.5337682,3.26625352 6.44834654,5.71132394 L5.51828488,1.03707042 C5.35783521,0.392413146 4.8915141,0.201314554 4.31514,0.178779343" id="Fill-5" fill="#EC982D"></path>
                        </g>
                    </g>
                </g>
            </g>
        </g>
    </g>
</svg>