<?xml version="1.0" encoding="UTF-8"?>
<svg width="92px" height="22px" viewBox="0 0 92 22" version="1.1" xmlns="http://www.w3.org/2000/svg" xmlns:xlink="http://www.w3.org/1999/xlink">
    <!-- Generator: Sketch 54 (76480) - https://sketchapp.com -->
    <title>Logo/logoSecondary</title>
    <desc>Created with Sketch.</desc>
    <g id="Symbols" stroke="none" stroke-width="1" fill="none" fill-rule="evenodd">
        <g id="header/headerMobile/Primary" transform="translate(-21.000000, -17.000000)" fill="#FFFFFF">
            <g id="Logo/logoSecondary" transform="translate(21.000000, 17.000000)">
                <g id="Logo/logoPrimary">
                    <g id="Logo">
                        <path d="M14.754717,9.53334469 L14.754717,0 L11.0298281,0 L11.0298281,9.67985949 C11.0298281,12.3586832 9.64067856,13.7327635 7.37834166,13.7327635 C5.1160271,13.7327635 3.7328436,12.3091952 3.7328436,9.55908559 L3.7328436,0 L0,0 L0,9.65411859 C0,14.6256972 2.77829907,17.16 7.32873636,17.16 C11.8791736,17.16 14.754717,14.6514381 14.754717,9.53334469 Z" id="Path"></path>
                        <polygon id="Path" points="17.7303456 8.36 15.1886792 11.44 19.9622642 11.44"></polygon>
                        <path d="M16.0566038,22 L19.5283019,22 L19.5283019,16.7263625 C17.9242541,15.9801251 16.6865729,14.7229546 16.0566038,13.2 L16.0566038,21.9969477 L16.0566038,22 Z" id="Path"></path>
                        <path d="M16.1286182,11.4077806 C16.3983625,13.1317742 17.3103464,14.6853509 18.6767612,15.7486259 C20.0431759,16.8119008 21.7600079,17.3039315 23.4736733,17.123411 C25.1874493,16.942868 26.767693,16.1035149 27.8888777,14.7781708 C29.0100623,13.4528268 29.5871524,11.7423947 29.5010097,9.99904687 C29.4148669,8.25572145 28.6721347,6.61219875 27.4258326,5.40690984 C26.1795306,4.20162094 24.5246593,3.52630799 22.8015825,3.52004366 C21.0786829,3.51380178 19.4189177,4.17705757 18.1641342,5.37325309 C16.9093729,6.56944861 16.1550811,8.20753774 16.0566038,9.95018957 L17.935269,7.65677049 L19.3646189,9.63457052 C19.6980955,8.02315532 20.9740272,6.86533164 22.786967,6.86533164 C24.5999512,6.86533164 26.2953472,8.45137517 26.2953472,10.4180835 C26.296233,11.2747478 25.9915223,12.1029194 25.4374626,12.7501214 C24.8836244,13.3973459 24.1174188,13.8200873 23.2801288,13.9405466 C22.4430603,14.0609834 21.591022,13.8710551 20.8810638,13.4056759 C20.1710835,12.9402967 19.6509274,12.2308106 19.4162825,11.4077806 L16.1286182,11.4077806 Z" id="Path"></path>
                        <polygon id="Path" points="32.2580158 17.16 35.440315 17.16 35.440315 2.93797621 40.7924528 2.93797621 40.7924528 0 26.9056604 0 26.9056604 2.93797621 32.2580158 2.93797621"></polygon>
                        <path d="M39.9245283,5.59757848 L39.9245283,17.6 L42.9251871,17.6 L42.9251871,11.2702089 C42.9251871,9.0550872 44.376244,8.22617606 45.9523008,8.22617606 C46.3471418,8.20829384 46.7419827,8.26793129 47.113455,8.4016201 C47.4851478,8.53530891 47.8264174,8.74043654 48.1176429,9.00515659 L49.4716981,6.4245077 C48.8056934,5.76736957 47.6008885,5.28 46.3478031,5.28 C45.0944973,5.28 43.8616942,5.49969917 42.9271712,6.98577097 L42.7051696,5.59757848 L39.9245283,5.59757848 Z" id="Path"></path>
                        <path d="M59.9770165,6.73700934 C59.2945126,5.57093262 57.7619587,4.84019149 56.1577274,4.84019149 C52.6553872,4.8168626 49.9056604,6.92552144 49.9056604,10.9523811 C49.9056604,15.0511518 52.5337595,17.1831395 56.0918738,17.1598106 C57.4306744,17.1364817 59.3025763,16.4737597 59.9850802,15.0997338 L60.130675,16.8041478 L62.9245283,16.8041478 L62.9245283,5.12586764 L60.0668373,5.12586764 L59.9691767,6.73700934 L59.9770165,6.73700934 Z M56.4171103,7.42303857 C61.0866733,7.42303857 61.0866733,14.5069768 56.4171103,14.5069768 C54.4475479,14.5069768 52.8650438,13.179587 52.8650438,10.9523811 C52.8650438,8.72517524 54.4475479,7.42303857 56.4171103,7.42303857 Z" id="Shape"></path>
                        <path d="M70.5971168,7.44381064 C71.0578003,7.43619338 71.5154082,7.5212011 71.9422599,7.69369657 C72.3691116,7.86619204 72.7564197,8.12263236 73.081117,8.44762799 C73.4058143,8.77262363 73.6610905,9.15948735 73.8317873,9.58499094 C74.0022644,10.0104945 74.084647,10.4658693 74.0738823,10.9237905 C74.0738823,13.0752453 72.4681904,14.4295451 70.5971168,14.4295451 C68.7262627,14.4295451 67.1924085,13.0038556 67.1924085,10.9237905 C67.1924085,8.77432866 68.7003397,7.44381064 70.5971168,7.44381064 Z M74.2672068,0 L74.2672068,6.59709924 C73.5631102,5.3657163 71.5925183,4.68758102 70.3280002,4.68758102 C66.8272888,4.68758102 64.2264151,6.81523183 64.2264151,10.9237905 C64.2264151,14.8400134 66.8771577,17.16 70.4097238,17.16 C71.867786,17.16 73.3517713,16.6781641 74.2753352,15.2504818 L74.474811,16.8943038 L77.245283,16.8943038 L77.245283,0 L74.2672068,0 Z" id="Shape"></path>
                        <path d="M91.946602,12.0523612 C92.3972382,7.25121924 89.9580151,4.84 86.0522119,4.84 C82.2652148,4.84 79.8490566,7.39283564 79.8490566,10.9408346 C79.8490566,14.676978 82.2419322,17.16 86.2582729,17.16 C88.0331831,17.16 90.0452701,16.5450605 91.2766317,15.2686319 L89.4296981,13.4471206 C88.7673435,14.1318954 87.3710461,14.5353616 86.3048379,14.5353616 C84.2694684,14.5353616 83.0148243,13.4936703 82.82443,12.0523612 L91.946602,12.0523612 Z M82.8807867,9.66440598 C83.306182,8.14939155 84.5841086,7.39283564 86.1475179,7.39283564 C87.8040571,7.39283564 88.9888537,8.14939155 89.1772896,9.66440598 L82.8807867,9.66440598 Z" id="Shape"></path>
                    </g>
                </g>
            </g>
        </g>
    </g>
</svg>