<?xml version="1.0" encoding="UTF-8"?>
<svg width="102px" height="24px" viewBox="0 0 102 24" version="1.1" xmlns="http://www.w3.org/2000/svg" xmlns:xlink="http://www.w3.org/1999/xlink">
    <!-- Generator: Sketch 54 (76480) - https://sketchapp.com -->
    <title>Logo/logoSecondary</title>
    <desc>Created with Sketch.</desc>
    <g id="Checkout" stroke="none" stroke-width="1" fill="none" fill-rule="evenodd">
        <g id="1.-Mobile-/-Home-/-Tab-/-Sell-Copy-3" transform="translate(-137.000000, -32.000000)" fill="#375A7D" fill-rule="nonzero">
            <g id="Group-2" transform="translate(0.000000, 32.000000)">
                <g id="Group-3">
                    <g id="Group-4">
                        <g id="Logo/logoSecondary" transform="translate(137.000000, 0.000000)">
                            <g id="Logo/logoPrimary">
                                <g id="Logo">
                                    <path d="M16.3584906,10.4000124 L16.3584906,0 L12.2287225,0 L12.2287225,10.5598467 C12.2287225,13.4821998 10.6885784,14.9811965 8.18033532,14.9811965 C5.672117,14.9811965 4.13858747,13.428213 4.13858747,10.4280934 L4.13858747,0 L0,0 L0,10.5317657 C0,15.9553061 3.0802881,18.72 8.12533814,18.72 C13.1703882,18.72 16.3584906,15.9833871 16.3584906,10.4000124 Z" id="Path"></path>
                                    <polygon id="Path" points="19.657557 9.12 16.8396226 12.48 22.1320755 12.48"></polygon>
                                    <path d="M17.8018868,24 L21.6509434,24 L21.6509434,18.2469409 C19.8725426,17.4328637 18.5003309,16.061405 17.8018868,14.4 L17.8018868,23.9966702 L17.8018868,24 Z" id="Path"></path>
                                    <path d="M17.8817289,12.4448516 C18.1807932,14.3255718 19.1919058,16.0203828 20.7068439,17.1803191 C22.221782,18.3402554 24.1252262,18.8770162 26.0251595,18.6800847 C27.9252155,18.4831287 29.6772248,17.5674708 30.9202774,16.1216409 C32.16333,14.675811 32.8031473,12.8098852 32.7076412,10.9080511 C32.612135,9.00624158 31.788671,7.21330772 30.4069014,5.8984471 C29.0251317,4.58358648 27.1903832,3.84688145 25.2800154,3.84004763 C23.369844,3.83323831 21.5296696,4.55679008 20.1384966,5.86173064 C18.7473482,7.16667121 17.9110682,8.95367753 17.8018868,10.8547523 L19.8847548,8.35284053 L21.4694688,10.5104406 C21.8391929,8.75253308 23.2538127,7.4894527 25.2638113,7.4894527 C27.2738589,7.4894527 29.1535371,9.21968201 29.1535371,11.365182 C29.1545192,12.2997248 28.8166878,13.2031848 28.2024042,13.9092234 C27.5883662,14.6152865 26.7388774,15.0764589 25.8105776,15.207869 C24.8825234,15.3392546 23.9378722,15.1320602 23.1507447,14.6243737 C22.3635926,14.1166873 21.7868977,13.3427024 21.5267479,12.4448516 L17.8817289,12.4448516 Z" id="Path"></path>
                                    <polygon id="Path" points="35.7643218 18.72 39.2925232 18.72 39.2925232 3.20506495 45.2264151 3.20506495 45.2264151 0 29.8301887 0 29.8301887 3.20506495 35.7643218 3.20506495"></polygon>
                                    <path d="M44.2641509,6.10644925 L44.2641509,19.2 L47.5909683,19.2 L47.5909683,12.2947734 C47.5909683,9.87827694 49.1997488,8.97401025 50.9471161,8.97401025 C51.3848746,8.95450237 51.822633,9.01956141 52.2344827,9.16540375 C52.6465769,9.31124608 53.024941,9.53502168 53.3478214,9.82380719 L54.8490566,7.00855386 C54.1106601,6.29167589 52.7748981,5.76 51.3856078,5.76 C49.9960731,5.76 48.6292696,5.99967183 47.5931681,7.62084105 L47.3470359,6.10644925 L44.2641509,6.10644925 Z" id="Path"></path>
                                    <path d="M66.4962574,7.34946474 C65.7395683,6.07738104 64.0404325,5.2802089 62.2618282,5.2802089 C58.3787989,5.2547592 55.3301887,7.5551143 55.3301887,11.9480522 C55.3301887,16.4194383 58.2439508,18.7452431 62.1888166,18.7197934 C63.6731391,18.6943437 65.7485085,17.9713743 66.5051976,16.4724368 L66.666618,18.3317976 L69.7641509,18.3317976 L69.7641509,5.59185561 L66.5958413,5.59185561 L66.4875655,7.34946474 L66.4962574,7.34946474 Z M62.5494049,8.09786026 C67.726529,8.09786026 67.726529,15.8257929 62.5494049,15.8257929 C60.3657596,15.8257929 58.6112442,14.3777313 58.6112442,11.9480522 C58.6112442,9.51837299 60.3657596,8.09786026 62.5494049,8.09786026 Z" id="Shape"></path>
                                    <path d="M78.2707164,8.1205207 C78.7814742,8.11221096 79.2888221,8.20494666 79.7620708,8.39312353 C80.2353194,8.58130041 80.6647262,8.86105348 81.0247167,9.21559418 C81.3847072,9.57013487 81.6677308,9.99216802 81.8569816,10.4563538 C82.0459888,10.9205395 82.137326,11.417312 82.1253913,11.9168624 C82.1253913,14.2639039 80.3451677,15.7413219 78.2707164,15.7413219 C76.1965087,15.7413219 74.4959312,14.1860243 74.4959312,11.9168624 C74.4959312,9.5719949 76.1677679,8.1205207 78.2707164,8.1205207 Z M82.3397293,0 L82.3397293,7.19683554 C81.5591004,5.85350869 79.3743138,5.11372475 77.9723481,5.11372475 C74.0911246,5.11372475 71.2075472,7.43479836 71.2075472,11.9168624 C71.2075472,16.1891055 74.146414,18.72 78.0629546,18.72 C79.6795019,18.72 81.32479,18.1943609 82.3487412,16.6368892 L82.5698991,18.4301496 L85.6415094,18.4301496 L85.6415094,0 L82.3397293,0 Z" id="Shape"></path>
                                    <path d="M101.940798,13.1480304 C102.440416,7.91042099 99.7360602,5.28 95.4057132,5.28 C91.2070859,5.28 88.5283019,8.06491161 88.5283019,11.9354559 C88.5283019,16.0112487 91.1812727,18.72 95.6341722,18.72 C97.6020073,18.72 99.8327995,18.0491569 101.198005,16.6566893 L99.1503175,14.6695861 C98.4159678,15.4166131 96.8678989,15.8567581 95.6857986,15.8567581 C93.4291932,15.8567581 92.0381748,14.7203676 91.8270855,13.1480304 L101.940798,13.1480304 Z M91.8895679,10.5429883 C92.3612018,8.89024532 93.7780335,8.06491161 95.5113785,8.06491161 C97.3479764,8.06491161 98.6615552,8.89024532 98.8704733,10.5429883 L91.8895679,10.5429883 Z" id="Shape"></path>
                                </g>
                            </g>
                        </g>
                    </g>
                </g>
            </g>
        </g>
    </g>
</svg>