<?xml version="1.0" encoding="UTF-8"?>
<svg width="24px" height="24px" viewBox="0 0 24 24" version="1.1" xmlns="http://www.w3.org/2000/svg" xmlns:xlink="http://www.w3.org/1999/xlink">
    <!-- Generator: Sketch 57.1 (83088) - https://sketch.com -->
    <title>ico / 24 / actions / checkmark_square_outlined@1x</title>
    <desc>Created with Sketch.</desc>
    <g id="ico-/-24-/-actions-/-checkmark_square_outlined" stroke="none" stroke-width="1" fill="none" fill-rule="evenodd">
        <path d="M19,3 L5,3 C3.8954305,3 3,3.8954305 3,5 L3,19 C3,20.1045695 3.8954305,21 5,21 L19,21 C20.1045695,21 21,20.1045695 21,19 L21,5 C21,3.8954305 20.1045695,3 19,3 Z M19,19 L5,19 L5,5 L19,5 L19,19 Z M10,15.35 C10.0907333,15.4466772 10.2174141,15.5015186 10.35,15.5015186 C10.4825859,15.5015186 10.6092667,15.4466772 10.7,15.35 L16.32,9.73 C16.4146563,9.6361167 16.4678992,9.50831877 16.4678992,9.375 C16.4678992,9.24168123 16.4146563,9.1138833 16.32,9.02 L15.79,8.49 C15.5955782,8.29942856 15.2844218,8.29942856 15.09,8.49 L10.35,13.23 L8.85,11.74 C8.75926667,11.6433228 8.63258591,11.5884814 8.5,11.5884814 C8.36741409,11.5884814 8.24073333,11.6433228 8.15,11.74 L7.62,12.27 C7.52534367,12.3638833 7.47210084,12.4916812 7.47210084,12.625 C7.47210084,12.7583188 7.52534367,12.8861167 7.62,12.98 L10,15.35 Z" id="Icon-color" fill="#000000" fill-rule="nonzero"></path>
    </g>
</svg>