<?xml version="1.0" encoding="UTF-8"?>
<svg width="66px" height="66px" viewBox="0 0 66 66" version="1.1" xmlns="http://www.w3.org/2000/svg" xmlns:xlink="http://www.w3.org/1999/xlink">
    <!-- Generator: Sketch 57.1 (83088) - https://sketch.com -->
    <title>b-meeting</title>
    <desc>Created with Sketch.</desc>
    <defs>
        <filter x="-4.0%" y="-137.5%" width="107.9%" height="371.9%" filterUnits="objectBoundingBox" id="filter-1">
            <feOffset dx="0" dy="5" in="SourceAlpha" result="shadowOffsetOuter1"></feOffset>
            <feGaussianBlur stdDeviation="8.5" in="shadowOffsetOuter1" result="shadowBlurOuter1"></feGaussianBlur>
            <feColorMatrix values="0 0 0 0 0   0 0 0 0 0   0 0 0 0 0  0 0 0 0.07 0" type="matrix" in="shadowBlurOuter1" result="shadowMatrixOuter1"></feColorMatrix>
            <feMerge>
                <feMergeNode in="shadowMatrixOuter1"></feMergeNode>
                <feMergeNode in="SourceGraphic"></feMergeNode>
            </feMerge>
        </filter>
    </defs>
    <g id="Symbols" stroke="none" stroke-width="1" fill="none" fill-rule="evenodd" stroke-linecap="square">
        <g id="Featuresdemo" transform="translate(-878.000000, -45.000000)" stroke="#1AB4E7" stroke-width="2">
            <g id="Features" filter="url(#filter-1)" transform="translate(26.000000, 57.000000)">
                <g id="Item.4" transform="translate(869.000000, 0.000000)">
                    <g id="b-meeting" transform="translate(0.000000, 1.000000)">
                        <polygon id="Shape" points="30.5 0.5 13.5 0.5 13.5 14.5 18.5 10.5 30.5 10.5"></polygon>
                        <circle id="Oval" cx="24.5" cy="17.5" r="3"></circle>
                        <circle id="Oval" cx="6.5" cy="17.5" r="3"></circle>
                        <path d="M12.5,29.5 L12.5,26.517 C12.5,25.807 12.128,25.154 11.517,24.792 C10.544,24.217 8.858,23.5 6.5,23.5 C4.112,23.5 2.436,24.213 1.474,24.788 C0.868,25.15 0.5,25.801 0.5,26.507 L0.5,29.5 L12.5,29.5 Z" id="Shape"></path>
                        <path d="M30.5,29.5 L30.5,26.517 C30.5,25.807 30.128,25.154 29.517,24.792 C28.544,24.217 26.858,23.5 24.5,23.5 C22.112,23.5 20.436,24.213 19.474,24.788 C18.868,25.15 18.5,25.801 18.5,26.507 L18.5,29.5 L30.5,29.5 Z" id="Shape"></path>
                    </g>
                </g>
            </g>
        </g>
    </g>
</svg>