<?xml version="1.0" encoding="UTF-8"?>
<svg width="52px" height="32px" viewBox="0 0 52 32" version="1.1" xmlns="http://www.w3.org/2000/svg" xmlns:xlink="http://www.w3.org/1999/xlink">
    <!-- Generator: Sketch 57.1 (83088) - https://sketch.com -->
    <title>Payment / Paypal</title>
    <desc>Created with Sketch.</desc>
    <g id="4.-Shopping-cart" stroke="none" stroke-width="1" fill="none" fill-rule="evenodd">
        <g id="4.-Desktop-/-Shopping-cart---1-" transform="translate(-1045.000000, -656.000000)">
            <g id="Basket--Modal" transform="translate(712.000000, 210.000000)">
                <g id="Payment-options" transform="translate(147.000000, 446.000000)">
                    <g id="4.-Icons-/-Payment-/-Paypal-/-Large" transform="translate(186.000000, 0.000000)">
                        <rect id="Rectangle" stroke="#E9E9E9" stroke-width="0.524590164" fill="#FFFFFF" transform="translate(26.000000, 16.000000) scale(1, -1) translate(-26.000000, -16.000000) " x="0.262295082" y="0.262295082" width="51.4754098" height="31.4754098" rx="2"></rect>
                        <g id="Logo" stroke-width="1" transform="translate(26.000000, 16.500000) scale(1, -1) translate(-26.000000, -16.500000) translate(9.000000, 12.000000)">
                            <path d="M22.6688081,6.41728505 C22.5278342,5.49193082 21.8209693,5.49193082 21.1370459,5.49193082 L20.7480375,5.49193082 L21.0210084,7.21965757 C21.0373002,7.32402583 21.1274039,7.4008063 21.2331344,7.4008063 L21.4116792,7.4008063 C21.8771594,7.4008063 22.3167057,7.4008063 22.543461,7.13589706 C22.6791152,6.97735037 22.720011,6.74202322 22.6688081,6.41728505 M22.3712333,8.83171505 L19.7924733,8.83171505 C19.6159233,8.83171505 19.4659722,8.70341521 19.4383759,8.52924653 L18.3957003,1.91881373 C18.3750862,1.7885196 18.4761619,1.67052364 18.6078263,1.67052364 L19.9311199,1.67052364 C20.0544721,1.67052364 20.1595376,1.76026705 20.1788218,1.88191922 L20.4747342,3.75622687 C20.501998,3.93039555 20.6522816,4.05869539 20.8284991,4.05869539 L21.6444193,4.05869539 C23.3430894,4.05869539 24.3235901,4.88034612 24.5796042,6.50935513 C24.6949768,7.22131949 24.584259,7.78105243 24.2507757,8.17293197 C23.8840438,8.60370032 23.2340341,8.83171505 22.3712333,8.83171505" id="Shape" fill="#0079C1"></path>
                            <path d="M4.27579201,6.41728505 C4.13481802,5.49193082 3.42795315,5.49193082 2.74402981,5.49193082 L2.35502139,5.49193082 L2.62799225,7.21965757 C2.64428406,7.32402583 2.73438772,7.4008063 2.84011821,7.4008063 L3.0186631,7.4008063 C3.48414326,7.4008063 3.92368952,7.4008063 4.15044485,7.13589706 C4.28609907,6.97735037 4.32699482,6.74202322 4.27579201,6.41728505 M3.97821719,8.83171505 L1.39945713,8.83171505 C1.22290715,8.83171505 1.07295605,8.70341521 1.04535972,8.52924653 L0.00268417232,1.91881373 C-0.0179299489,1.7885196 0.0828132564,1.67052364 0.214810129,1.67052364 L1.44633763,1.67052364 C1.62255512,1.67052364 1.77250622,1.79882347 1.80010255,1.97265978 L2.08171804,3.75622687 C2.10898188,3.93039555 2.25926547,4.05869539 2.43548296,4.05869539 L3.25140318,4.05869539 C4.95007326,4.05869539 5.93057396,4.88034612 6.18658805,6.50935513 C6.30196063,7.22131949 6.19124285,7.78105243 5.85775957,8.17293197 C5.4910277,8.60370032 4.84101791,8.83171505 3.97821719,8.83171505" id="Shape" fill="#00457C"></path>
                            <path d="M9.96505672,4.04413701 C9.84569431,3.33882032 9.28578818,2.86517457 8.57127614,2.86517457 C8.2131889,2.86517457 7.92625363,2.98051146 7.74205649,3.1985547 C7.55952177,3.41460364 7.4906972,3.72272267 7.54854974,4.06540952 C7.6596,4.76474332 8.22881574,5.25334631 8.93235574,5.25334631 C9.28312829,5.25334631 9.56773616,5.13701227 9.75559065,4.91697473 C9.94477508,4.69527528 10.0192519,4.38549434 9.96505672,4.04413701 M11.6860034,6.44693361 L10.451151,6.44693361 C10.3454205,6.44693361 10.2553168,6.37015314 10.2386926,6.2654525 L10.1844974,5.92043896 L10.0983835,6.04541496 C9.83073245,6.43330591 9.23458536,6.56326765 8.63943573,6.56326765 C7.27524639,6.56326765 6.10988357,5.52955657 5.88312823,4.08003437 C5.76509577,3.356769 5.93266862,2.66574477 6.34295613,2.18345706 C6.71966257,1.74039055 7.25729215,1.55591799 7.89799234,1.55591799 C8.99785545,1.55591799 9.60763446,2.26189945 9.60763446,2.26189945 L9.55244181,1.91888021 C9.53182769,1.78858608 9.63257089,1.67059012 9.76490025,1.67059012 L10.8767329,1.67059012 C11.0532828,1.67059012 11.2032339,1.79855757 11.2308303,1.97272625 L11.8984618,6.19864352 C11.9190759,6.32893765 11.8180002,6.44693361 11.6860034,6.44693361" id="Shape" fill="#00457C"></path>
                            <path d="M28.3581061,4.04413701 C28.2387437,3.33882032 27.6788376,2.86517457 26.9643255,2.86517457 C26.6062383,2.86517457 26.319303,2.98051146 26.1351059,3.1985547 C25.9522387,3.41460364 25.8837466,3.72272267 25.9415991,4.06540952 C26.0526494,4.76474332 26.6218651,5.25334631 27.3254051,5.25334631 C27.6761777,5.25334631 27.9607855,5.13701227 28.14864,4.91697473 C28.3378245,4.69527528 28.4123013,4.38549434 28.3581061,4.04413701 M30.0790527,6.44693361 L28.8442004,6.44693361 C28.7384699,6.44693361 28.6483662,6.37015314 28.6317419,6.2654525 L28.5775468,5.92043896 L28.4911004,6.04541496 C28.2237818,6.43330591 27.6276348,6.56326765 27.0324851,6.56326765 C25.6682958,6.56326765 24.502933,5.52955657 24.2761776,4.08003437 C24.1581452,3.356769 24.325718,2.66574477 24.7360055,2.18345706 C25.112712,1.74039055 25.6503415,1.55591799 26.2910417,1.55591799 C27.3909048,1.55591799 28.0006838,2.26189945 28.0006838,2.26189945 L27.9454912,1.91888021 C27.9248771,1.78858608 28.0256203,1.67059012 28.1579496,1.67059012 L29.2697822,1.67059012 C29.4463322,1.67059012 29.5962833,1.79855757 29.6238796,1.97272625 L30.2915112,6.19864352 C30.3121253,6.32893765 30.2110496,6.44693361 30.0790527,6.44693361" id="Shape" fill="#0079C1"></path>
                            <path d="M18.2628057,6.44690037 L17.0216361,6.44690037 C16.9029387,6.44690037 16.7918884,6.38806858 16.7253913,6.28968322 L15.0130893,3.76889066 L14.2876052,6.19129785 C14.2420546,6.3428645 14.1024106,6.44690037 13.9441473,6.44690037 L12.7242568,6.44690037 C12.5769656,6.44690037 12.47323,6.30198139 12.5207755,6.16271292 L13.8872923,2.15217983 L12.6019021,0.339030644 C12.5011589,0.196770727 12.6028995,-3.64153152e-14 12.7774546,-3.64153152e-14 L14.0172942,-3.64153152e-14 C14.1346617,-3.64153152e-14 14.2447145,0.0575022563 14.3118767,0.153893322 L18.4393557,6.10953164 C18.538104,6.25212394 18.4363633,6.44690037 18.2628057,6.44690037" id="Shape" fill="#00457C"></path>
                            <path d="M31.5344762,8.65006774 L30.4761738,1.91864754 C30.4555597,1.78835341 30.5563029,1.67035745 30.6882998,1.67035745 L31.7529194,1.67035745 C31.9291369,1.67035745 32.0794205,1.79865728 32.1066843,1.97282597 L33.1503573,8.58325876 C33.1709714,8.71355289 33.0702282,8.83154885 32.9378989,8.83154885 L31.7469346,8.83154885 C31.6408717,8.83154885 31.550768,8.75476839 31.5344762,8.65006774" id="Shape" fill="#0079C1"></path>
                        </g>
                    </g>
                </g>
            </g>
        </g>
    </g>
</svg>