<?xml version="1.0" encoding="UTF-8"?>
<svg width="67px" height="66px" viewBox="0 0 67 66" version="1.1" xmlns="http://www.w3.org/2000/svg" xmlns:xlink="http://www.w3.org/1999/xlink">
    <!-- Generator: Sketch 57.1 (83088) - https://sketch.com -->
    <title>credit-locked</title>
    <desc>Created with Sketch.</desc>
    <defs>
        <filter x="-4.0%" y="-137.5%" width="107.9%" height="371.9%" filterUnits="objectBoundingBox" id="filter-1">
            <feOffset dx="0" dy="5" in="SourceAlpha" result="shadowOffsetOuter1"></feOffset>
            <feGaussianBlur stdDeviation="8.5" in="shadowOffsetOuter1" result="shadowBlurOuter1"></feGaussianBlur>
            <feColorMatrix values="0 0 0 0 0   0 0 0 0 0   0 0 0 0 0  0 0 0 0.07 0" type="matrix" in="shadowBlurOuter1" result="shadowMatrixOuter1"></feColorMatrix>
            <feMerge>
                <feMergeNode in="shadowMatrixOuter1"></feMergeNode>
                <feMergeNode in="SourceGraphic"></feMergeNode>
            </feMerge>
        </filter>
    </defs>
    <g id="Symbols" stroke="none" stroke-width="1" fill="none" fill-rule="evenodd" stroke-linecap="square">
        <g id="Featuresdemo" transform="translate(-570.000000, -44.000000)" stroke="#1AB4E7" stroke-width="2">
            <g id="Features" filter="url(#filter-1)" transform="translate(26.000000, 57.000000)">
                <g id="Item.3" transform="translate(562.000000, 0.000000)">
                    <g id="credit-locked">
                        <path d="M0.5,6.5 L30.5,6.5" id="Shape"></path>
                        <path d="M0.5,11.5 L30.5,11.5" id="Shape"></path>
                        <path d="M12.5,22.5 L2.5,22.5 C1.395,22.5 0.5,21.605 0.5,20.5 L0.5,2.5 C0.5,1.395 1.395,0.5 2.5,0.5 L28.5,0.5 C29.605,0.5 30.5,1.395 30.5,2.5 L30.5,20.5" id="Shape"></path>
                        <path d="M4.5,17.5 L11.5,17.5" id="Shape"></path>
                        <rect id="Rectangle-path" x="16.5" y="21.5" width="10" height="9"></rect>
                        <path d="M21.5,25.5 L21.5,26.5" id="Shape"></path>
                        <path d="M18.5,21.5 L18.5,18.5 C18.5,16.8 19.8,15.5 21.5,15.5 L21.5,15.5 C23.2,15.5 24.5,16.8 24.5,18.5 L24.5,21.5" id="Shape"></path>
                    </g>
                </g>
            </g>
        </g>
    </g>
</svg>