<?xml version="1.0" encoding="UTF-8"?>
<svg width="67px" height="77px" viewBox="0 0 67 77" version="1.1" xmlns="http://www.w3.org/2000/svg" xmlns:xlink="http://www.w3.org/1999/xlink">
    <!-- Generator: Sketch 54 (76480) - https://sketchapp.com -->
    <title>basge</title>
    <desc>Created with Sketch.</desc>
    <g id="Desktop-and-Mobile-with-Badge" stroke="none" stroke-width="1" fill="none" fill-rule="evenodd">
        <g id="Desktop-/-1" transform="translate(-387.000000, -553.000000)">
            <g id="basge" transform="translate(387.000000, 553.000000)">
                <path d="M30.5901,1.68002 C32.3908,0.640422 34.6092,0.640421 36.4099,1.68002 L63.9321,17.57 C65.7327,18.6096 66.842,20.5308 66.842,22.61 L66.842,54.39 C66.842,56.4692 65.7327,58.3904 63.9321,59.43 L36.4099,75.32 C34.6092,76.3596 32.3908,76.3596 30.5901,75.32 L3.06791,59.43 C1.26727,58.3904 0.15802,56.4692 0.15802,54.39 L0.15802,22.61 C0.15802,20.5308 1.26727,18.6096 3.06791,17.57 L30.5901,1.68002 Z" id="Path" fill="#375A7D" fill-rule="nonzero"></path>
                <path d="M36.2986,5.45541 L60.7192,19.5547 C62.4506,20.5543 63.5172,22.4017 63.5172,24.4009 L63.5172,52.5994 C63.5172,54.5986 62.4506,56.446 60.7192,57.4456 L36.2986,71.5449 C34.5672,72.5445 32.4341,72.5445 30.7027,71.5449 L6.282,57.4456 C4.55066,56.446 3.48408,54.5986 3.48408,52.5994 L3.48408,24.4009 C3.48408,22.4017 4.55065,20.5543 6.282,19.5547 L30.7027,5.45541 C32.4341,4.4558 34.5672,4.4558 36.2986,5.45541 Z" id="Path" stroke="#FFFFFF" stroke-width="0.447674"></path>
                <polygon id="Path" fill="#FFFFFF" fill-rule="nonzero" points="25.6658 15.6694 25.9371 16.5046 26.8153 16.5046 26.1048 17.0208 26.3762 17.856 25.6658 17.3398 24.9553 17.856 25.2267 17.0208 24.5162 16.5046 25.3944 16.5046"></polygon>
                <polygon id="Path" fill="#FFFFFF" fill-rule="nonzero" points="29.2933 15.6685 29.6551 16.7821 30.826 16.7821 29.8787 17.4703 30.2406 18.5839 29.2933 17.8957 28.346 18.5839 28.7078 17.4703 27.7605 16.7821 28.9314 16.7821"></polygon>
                <polygon id="Path" fill="#FFFFFF" fill-rule="nonzero" points="41.7829 15.6685 42.0543 16.5037 42.9325 16.5037 42.222 17.0198 42.4934 17.8551 41.7829 17.3389 41.0725 17.8551 41.3438 17.0198 40.6334 16.5037 41.5116 16.5037"></polygon>
                <polygon id="Path" fill="#FFFFFF" fill-rule="nonzero" points="38.1585 15.6685 38.5203 16.7821 39.6913 16.7821 38.744 17.4703 39.1058 18.5839 38.1585 17.8957 37.2112 18.5839 37.573 17.4703 36.6258 16.7821 37.7967 16.7821"></polygon>
                <polygon id="Path" fill="#FFFFFF" fill-rule="nonzero" points="33.7216 15.6685 34.1739 17.0605 35.6375 17.0605 34.4534 17.9208 34.9057 19.3128 33.7216 18.4525 32.5375 19.3128 32.9897 17.9208 31.8056 17.0605 33.2693 17.0605"></polygon>
                <polygon id="Path" fill="#FFFFFF" fill-rule="nonzero" points="25.6658 59.5405 25.9371 60.3757 26.8153 60.3757 26.1048 60.8919 26.3762 61.7271 25.6658 61.2109 24.9553 61.7271 25.2267 60.8919 24.5162 60.3757 25.3944 60.3757"></polygon>
                <polygon id="Path" fill="#FFFFFF" fill-rule="nonzero" points="29.2913 58.6455 29.6531 59.7591 30.8241 59.7591 29.8768 60.4474 30.2386 61.561 29.2913 60.8727 28.344 61.561 28.7059 60.4474 27.7586 59.7591 28.9295 59.7591"></polygon>
                <polygon id="Path" fill="#FFFFFF" fill-rule="nonzero" points="41.7829 59.5405 42.0543 60.3757 42.9325 60.3757 42.222 60.8919 42.4934 61.7271 41.7829 61.2109 41.0725 61.7271 41.3438 60.8919 40.6334 60.3757 41.5116 60.3757"></polygon>
                <polygon id="Path" fill="#FFFFFF" fill-rule="nonzero" points="38.1565 58.6455 38.5184 59.7591 39.6893 59.7591 38.742 60.4474 39.1038 61.561 38.1565 60.8727 37.2093 61.561 37.5711 60.4474 36.6238 59.7591 37.7947 59.7591"></polygon>
                <polygon id="Path" fill="#FFFFFF" fill-rule="nonzero" points="33.7235 57.75 34.1758 59.142 35.6395 59.142 34.4553 60.0023 34.9076 61.3943 33.7235 60.534 32.5394 61.3943 32.9917 60.0023 31.8076 59.142 33.2712 59.142"></polygon>
                <path d="M13.9375,45.7815 L18.6709,45.7815" id="Path" stroke="#1AB4E7" stroke-width="0.525935"></path>
                <path d="M10.2559,47.3069 L18.6708,47.3069" id="Path" stroke="#1AB4E7" stroke-width="0.525935"></path>
                <path d="M48.2852,45.7815 L53.0186,45.7815" id="Path" stroke="#1AB4E7" stroke-width="0.525935"></path>
                <path d="M48.2852,47.3064 L56.7001,47.3064" id="Path" stroke="#1AB4E7" stroke-width="0.525935"></path>
                <path d="M20.1105,47.0627 C20.1105,48.2717 21.0302,49.1163 22.164,49.1163 C23.0028,49.1163 23.7258,48.6998 24.0324,47.9131 L23.2399,47.9131 C23.0259,48.3411 22.6441,48.5436 22.164,48.5436 C21.3657,48.5436 20.7873,47.9709 20.7873,47.0627 C20.7873,46.1546 21.3657,45.5877 22.164,45.5877 C22.6441,45.5877 23.0259,45.7902 23.2399,46.2182 L24.0324,46.2182 C23.7258,45.4315 23.0028,45.0092 22.164,45.0092 C21.0302,45.0092 20.1105,45.8596 20.1105,47.0627 Z M27.0255,45.0555 L24.8043,45.0555 L24.8043,49.0815 L27.0255,49.0815 L27.0255,48.5436 L25.4637,48.5436 L25.4637,47.3115 L26.852,47.3115 L26.852,46.7735 L25.4637,46.7735 L25.4637,45.5935 L27.0255,45.5935 L27.0255,45.0555 Z M29.9722,46.2645 C29.9722,46.6636 29.7409,46.9471 29.226,46.9471 L28.4972,46.9471 L28.4972,45.5993 L29.226,45.5993 C29.7409,45.5993 29.9722,45.8596 29.9722,46.2645 Z M27.8378,45.0613 L27.8378,49.0815 L28.4972,49.0815 L28.4972,47.4734 L29.0004,47.4734 L29.926,49.0815 L30.7127,49.0815 L29.7177,47.4156 C30.3945,47.2479 30.649,46.7388 30.649,46.2645 C30.649,45.6108 30.1805,45.0613 29.226,45.0613 L27.8378,45.0613 Z M31.2844,45.5993 L32.3603,45.5993 L32.3603,49.0815 L33.0197,49.0815 L33.0197,45.5993 L34.0899,45.5993 L34.0899,45.0613 L31.2844,45.0613 L31.2844,45.5993 Z M34.7577,49.0815 L35.4171,49.0815 L35.4171,45.0613 L34.7577,45.0613 L34.7577,49.0815 Z M36.2829,49.0815 L36.9423,49.0815 L36.9423,47.3231 L38.2728,47.3231 L38.2728,46.7851 L36.9423,46.7851 L36.9423,45.5993 L38.6488,45.5993 L38.6488,45.0613 L36.2829,45.0613 L36.2829,49.0815 Z M39.2599,49.0815 L39.9193,49.0815 L39.9193,45.0613 L39.2599,45.0613 L39.2599,49.0815 Z M43.0064,45.0555 L40.7851,45.0555 L40.7851,49.0815 L43.0064,49.0815 L43.0064,48.5436 L41.4445,48.5436 L41.4445,47.3115 L42.8328,47.3115 L42.8328,46.7735 L41.4445,46.7735 L41.4445,45.5935 L43.0064,45.5935 L43.0064,45.0555 Z M45.1317,45.0613 L43.8186,45.0613 L43.8186,49.0815 L45.1317,49.0815 C46.4216,49.0815 47.2662,48.3238 47.2662,47.0859 C47.2662,45.8422 46.4216,45.0613 45.1317,45.0613 Z M44.478,48.5436 L44.478,45.5993 L45.1317,45.5993 C46.0803,45.5993 46.5894,46.1662 46.5894,47.0859 C46.5894,47.9998 46.0803,48.5436 45.1317,48.5436 L44.478,48.5436 Z" id="Shape" fill="#FFFFFF" fill-rule="nonzero"></path>
                <path d="M16.1213,33.896 L16.1213,28.6509 L14.0666,28.6509 L14.0666,33.9766 C14.0666,35.4504 13.3004,36.2064 12.0524,36.2064 C10.8045,36.2064 10.0415,35.4232 10.0415,33.9101 L10.0415,28.6509 L7.9824,28.6509 L7.9824,33.9624 C7.9824,36.6977 9.515,38.092 12.0251,38.092 C14.5352,38.092 16.1213,36.7119 16.1213,33.896 L16.1213,33.896 Z" id="Path" fill="#FFFFFF" fill-rule="nonzero"></path>
                <polygon id="Path" fill="#FFFFFF" points="17.9961 33.209 16.6094 34.9995 19.2138 34.9995"></polygon>
                <path d="M16.9355,40.8606 L18.8889,40.8606 L18.8889,37.8366 C17.9864,37.4086 17.29,36.6878 16.9355,35.8145 L16.9355,40.8588 L16.9355,40.8606 Z" id="Path" fill="#FFFFFF"></path>
                <path d="M16.9756,34.9346 C17.1258,35.881 17.6334,36.7338 18.3939,37.3175 C19.1545,37.9012 20.1101,38.1713 21.0639,38.0722 C22.0178,37.9731 22.8973,37.5123 23.5214,36.7848 C24.1455,36.0572 24.4666,35.1183 24.4187,34.1612 C24.3707,33.2042 23.9574,32.302 23.2637,31.6403 C22.57,30.9787 21.6488,30.608 20.6898,30.6045 C19.7308,30.6011 18.807,30.9652 18.1086,31.6218 C17.4102,32.2785 16.9904,33.1778 16.9355,34.1344 L17.9812,32.8754 L18.7768,33.9611 C18.9624,33.0765 19.6726,32.4409 20.6816,32.4409 C21.6907,32.4409 22.6344,33.3116 22.6344,34.3913 C22.6349,34.8615 22.4653,35.3162 22.157,35.6715 C21.8486,36.0268 21.4222,36.2588 20.9562,36.3249 C20.4902,36.3911 20.016,36.2868 19.6208,36.0313 C19.2257,35.7759 18.9361,35.3864 18.8055,34.9346 L16.9756,34.9346 Z" id="Path" fill="#FFFFFF"></path>
                <polygon id="Path" fill="#FFFFFF" fill-rule="nonzero" points="26.1743 38.2254 27.9771 38.2254 27.9771 30.4253 31.0088 30.4253 31.0088 28.814 23.1426 28.814 23.1426 30.4253 26.1743 30.4253"></polygon>
                <path d="M30.4473,31.7554 L30.4473,38.324 L32.125,38.324 L32.125,34.8599 C32.125,33.6476 32.9362,33.1939 33.8174,33.1939 C34.0382,33.1842 34.2589,33.2168 34.4666,33.29 C34.6744,33.3631 34.8652,33.4754 35.028,33.6203 L35.7851,32.2079 C35.4127,31.8483 34.7392,31.5815 34.0385,31.5815 C33.3379,31.5815 32.6485,31.7018 32.1261,32.5151 L32.002,31.7554 L30.4473,31.7554 Z" id="Path" fill="#FFFFFF" fill-rule="nonzero"></path>
                <path d="M41.6065,32.3373 C41.2309,31.6726 40.3876,31.256 39.5048,31.256 C37.5776,31.2427 36.0645,32.4448 36.0645,34.7404 C36.0645,37.0771 37.5106,38.2925 39.4685,38.2792 C40.2053,38.2659 41.2353,37.8881 41.6109,37.1048 L41.691,38.0764 L43.2284,38.0764 L43.2284,31.4188 L41.6559,31.4188 L41.6021,32.3373 L41.6065,32.3373 Z M39.6475,32.7284 C42.217,32.7284 42.217,36.7669 39.6475,36.7669 C38.5637,36.7669 37.6929,36.0101 37.6929,34.7404 C37.6929,33.4707 38.5637,32.7284 39.6475,32.7284 Z" id="Shape" fill="#FFFFFF" fill-rule="nonzero"></path>
                <path d="M47.7873,32.7949 C48.0458,32.7906 48.3025,32.8379 48.5419,32.9339 C48.7814,33.03 48.9988,33.1727 49.1809,33.3536 C49.3631,33.5345 49.5063,33.7499 49.602,33.9867 C49.6977,34.2236 49.744,34.477 49.7379,34.7319 C49.7379,35.9295 48.837,36.6834 47.7873,36.6834 C46.7376,36.6834 45.877,35.8898 45.877,34.7319 C45.877,33.5355 46.723,32.7949 47.7873,32.7949 Z M49.8464,28.6514 L49.8464,32.3236 C49.4514,31.6381 48.3457,31.2606 47.6362,31.2606 C45.6722,31.2606 44.2129,32.445 44.2129,34.7319 C44.2129,36.9119 45.7002,38.2032 47.6821,38.2032 C48.5002,38.2032 49.3328,37.935 49.8509,37.1403 L49.9628,38.0553 L51.5173,38.0553 L51.5173,28.6514 L49.8464,28.6514 Z" id="Shape" fill="#FFFFFF" fill-rule="nonzero"></path>
                <path d="M59.2785,35.3675 C59.5337,32.6305 58.152,31.2559 55.9396,31.2559 C53.7943,31.2559 52.4258,32.7112 52.4258,34.7338 C52.4258,36.8638 53.7811,38.2793 56.0562,38.2793 C57.0617,38.2793 58.2015,37.9287 58.899,37.2011 L57.8527,36.1626 C57.4776,36.553 56.6866,36.783 56.0826,36.783 C54.9297,36.783 54.219,36.1892 54.1112,35.3675 L59.2785,35.3675 Z M54.1431,34.0062 C54.384,33.1425 55.1079,32.7112 55.9935,32.7112 C56.9319,32.7112 57.603,33.1425 57.7097,34.0062 L54.1431,34.0062 Z" id="Shape" fill="#FFFFFF" fill-rule="nonzero"></path>
            </g>
        </g>
    </g>
</svg>