<?xml version="1.0" encoding="UTF-8"?>
<svg width="70px" height="70px" viewBox="0 0 70 70" version="1.1" xmlns="http://www.w3.org/2000/svg" xmlns:xlink="http://www.w3.org/1999/xlink">
    <!-- Generator: Sketch 54 (76480) - https://sketchapp.com -->
    <title>切片</title>
    <desc>Created with Sketch.</desc>
    <g id="页面1" stroke="none" stroke-width="1" fill="none" fill-rule="evenodd">
        <path d="M51.2455254,43.0354969 C50.5990508,44.454748 49.8342034,45.7609175 48.9476271,46.9620605 C47.7394915,48.5991098 46.7501017,49.7324039 45.9876949,50.3619429 C44.8057966,51.3948577 43.5393898,51.9240175 42.1835932,51.9540693 C41.2100678,51.9540693 40.0361017,51.6907287 38.6696271,51.1566119 C37.2985763,50.6252835 36.0385763,50.3619429 34.8862712,50.3619429 C33.6781356,50.3619429 32.3824407,50.6252835 30.9961356,51.1566119 C29.608,51.6907287 28.4898644,51.9689403 27.6347119,51.9965136 C26.3343797,52.0491817 25.0382576,51.505151 23.7445153,50.3619429 C22.9187729,49.6772573 21.885939,48.5039973 20.6486678,46.8415435 C19.3211525,45.0663179 18.2297424,43.0079236 17.3747424,40.661094 C16.4590305,38.1262081 16,35.6715637 16,33.294992 C16,30.5726696 16.6188949,28.2249105 17.8585763,26.2576011 C18.8328339,24.6772476 20.1289559,23.4304692 21.751122,22.515283 C23.3733186,21.6001279 25.1260915,21.1337671 27.0136814,21.1039012 C28.0465153,21.1039012 29.4008475,21.4075485 31.084,22.0043093 C32.7625763,22.6030529 33.8401356,22.9066692 34.3127119,22.9066692 C34.666,22.9066692 35.8631525,22.551655 37.8925763,21.8438264 C39.8118644,21.1873957 41.4315593,20.9156282 42.758678,21.0226684 C46.3544068,21.2984945 49.0559322,22.6456831 50.8522712,25.0728781 C47.636678,26.9246274 46.045661,29.5183777 46.0773898,32.8460737 C46.1063729,35.4376553 47.0957627,37.5945699 49.0400678,39.3072133 C49.9211525,40.1018824 50.9050508,40.7162406 52,41.1524566 C51.7626441,41.8067806 51.5118644,42.4338411 51.2455254,43.0354969 Z M43,12.7603238 C43,14.6610897 42.2190889,16.4358162 40.6627576,18.0784738 C38.7846055,20.031273 36.5129474,21.1597142 34.0497221,20.9816415 C34.0183026,20.7536226 34,20.5136318 34,20.261437 C34,18.4367063 34.893167,16.4839071 36.4793926,14.8872243 C37.2712852,14.0787806 38.2782335,13.4065801 39.4996272,12.8703618 C40.7182755,12.3421153 41.8710344,12.0500041 42.9551586,12 C42.9865781,12.254079 43,12.508216 43,12.7602948 L43,12.7603238 Z" id="Shape" fill="#F5F7F9" fill-rule="nonzero"></path>
    </g>
</svg>