<?xml version="1.0" encoding="UTF-8"?>
<svg width="70px" height="70px" viewBox="0 0 70 70" version="1.1" xmlns="http://www.w3.org/2000/svg" xmlns:xlink="http://www.w3.org/1999/xlink">
    <!-- Generator: Sketch 54 (76480) - https://sketchapp.com -->
    <title>切片</title>
    <desc>Created with Sketch.</desc>
    <g id="页面1" stroke="none" stroke-width="1" fill="none" fill-rule="evenodd">
        <g id="Google" transform="translate(5.000000, 26.000000)" fill="#F5F7F9" fill-rule="nonzero">
            <path d="M25,9.50013999 C25,12.0910873 22.7551008,14 20.0000306,14 C17.2449603,14 15,12.0910873 15,9.50013999 C15,6.89099393 17.2449603,5 20.0000306,5 C22.7551008,5 25,6.89099393 25,9.50013999 Z M22.8112737,9.50013999 C22.8112737,7.88100793 21.5101588,6.77340177 20.0000306,6.77340177 C18.4899023,6.77340177 17.1887569,7.88100793 17.1887569,9.50013999 C17.1887569,11.1030331 18.4899023,12.2268782 20.0000306,12.2268782 C21.5101588,12.2268782 22.8112737,11.1007933 22.8112737,9.50013999 Z" id="Shape"></path>
            <path d="M36,9.50013999 C36,12.0910873 33.7551956,14 31,14 C28.2448044,14 26,12.0910873 26,9.50013999 C26,6.8929538 28.2448044,5 31,5 C33.7551956,5 36,6.89099393 36,9.50013999 Z M33.8111247,9.50013999 C33.8111247,7.88100793 32.5100856,6.77340177 31,6.77340177 C29.4899144,6.77340177 28.1885697,7.88100793 28.1885697,9.50013999 C28.1885697,11.1030331 29.4899144,12.2268782 31,12.2268782 C32.5100856,12.2268782 33.8111247,11.1007933 33.8111247,9.50013999 Z" id="Shape"></path>
            <path d="M46,5.29206772 L46,13.9716827 C46,17.5417669 43.9553174,19 41.5381417,19 C39.262594,19 37.8932352,17.4328807 37.3768111,16.1512118 L39.1716296,15.3817893 C39.4911562,16.1686576 40.2744283,17.0971983 41.5358388,17.0971983 C43.0830961,17.0971983 44.0419639,16.1142145 44.0419639,14.2637504 L44.0419639,13.5683224 L43.9699984,13.5683224 C43.5085559,14.1545634 42.6196386,14.6668099 41.497841,14.6668099 C39.1506157,14.6668099 37,12.5612754 37,9.85205397 C37,7.12298041 39.1506157,5 41.497841,5 C42.6176235,5 43.5065409,5.51224648 43.9699984,6.08134239 L44.0419639,6.08134239 L44.0419639,5.29447405 L46,5.29447405 L46,5.29206772 Z M44.1881977,9.85205397 C44.1881977,8.14957889 43.085399,6.90520798 41.6820726,6.90520798 C40.2597473,6.90520798 39.0679994,8.14957889 39.0679994,9.85205397 C39.0679994,11.5367824 40.2597473,12.7640083 41.6820726,12.7640083 C43.085399,12.7640083 44.1881977,11.5367824 44.1881977,9.85205397 Z" id="Shape"></path>
            <polygon id="Path" points="49.54775 1 49.54775 15 47.45225 15 47.45225 1"></polygon>
            <path d="M58.2443403,10.9829211 L59.9075496,12.005693 C59.3707988,12.7381241 58.077391,14 55.8421263,14 C53.0701107,14 51,12.0238917 51,9.49986001 C51,6.82379841 53.087763,5 55.6024733,5 C58.1345368,5 59.3731924,6.8585161 59.7777002,7.86280915 L60,8.37405506 L53.4773113,10.865329 C53.976663,11.7682688 54.7530667,12.2288381 55.8421263,12.2288381 C56.9332801,12.2288381 57.6902364,11.7338311 58.2443403,10.9829211 Z M53.1251621,9.36406906 L57.4855889,7.69426038 C57.2456368,7.13233784 56.5239852,6.74064396 55.6748778,6.74064396 C54.5861175,6.74064396 53.0701107,7.62734484 53.1251621,9.36406906 Z" id="Shape"></path>
            <path d="M7.80732223,8.32123896 L7.80732223,6.40859095 L14.894945,6.40859095 C14.9642217,6.74181075 15,7.13617695 15,7.56307976 C15,8.99805662 14.5685938,10.772424 13.1783482,12.0365837 C11.8261,13.3170116 10.0983472,14 7.80954128,14 C3.56727854,14 0,10.8576924 0,7.00014024 C0,3.14230762 3.56727854,0 7.80954128,0 C10.1564375,0 11.828319,0.837537315 13.0844797,1.92891631 L11.6003352,3.27834432 C10.6995862,2.51008755 9.47920382,1.91264801 7.80732223,1.91264801 C4.70941685,1.91264801 2.28652605,4.18291828 2.28652605,7.00014024 C2.28652605,9.81708172 4.70941685,12.087352 7.80732223,12.087352 C9.81671112,12.087352 10.9610989,11.3535953 11.6942341,10.6868752 C12.2887552,10.1463747 12.6799147,9.3739106 12.8341534,8.31899505 L7.80732223,8.32123896 Z" id="Path"></path>
        </g>
    </g>
</svg>