<?xml version="1.0" encoding="UTF-8"?>
<svg width="70px" height="70px" viewBox="0 0 70 70" version="1.1" xmlns="http://www.w3.org/2000/svg" xmlns:xlink="http://www.w3.org/1999/xlink">
    <!-- Generator: Sketch 54 (76480) - https://sketchapp.com -->
    <title>切片</title>
    <desc>Created with Sketch.</desc>
    <g id="页面1" stroke="none" stroke-width="1" fill="none" fill-rule="evenodd">
        <g id="LG" transform="translate(6.000000, 24.000000)" fill-rule="nonzero">
            <path d="M11.5000322,23 C17.8459969,23 23,17.8571753 23,11.50253 C23,5.14756242 17.8459969,0 11.5000322,0 C5.14421311,0 0,5.14756242 0,11.50253 C0,17.8571753 5.14421311,23 11.5000322,23 Z" id="Path"></path>
            <polygon id="Path" fill="#FFFFFF" points="11.006975 7 11.006975 17 13.993025 17 13.993025 16.1008975 11.867615 16.1008975 11.867615 7"></polygon>
            <path d="M7.5,8.78445 C8.2104,8.78445 8.78307,8.20665 8.78307,7.50135 C8.78307,6.79545 8.2104,6.21555 7.5,6.21555 C6.78957,6.21555 6.21693,6.79545 6.21693,7.50135 C6.21693,8.20725 6.78957,8.78445 7.5,8.78445 Z" id="Path" fill="#FFFFFF"></path>
            <path d="M11.9540578,2.01322438 C11.8354463,2.00734335 11.6099191,2 11.5021453,2 C6.26346859,2 2,6.26594321 2,11.5026067 C2,14.0460745 2.98814353,16.4299596 4.77790026,18.2228803 C6.57503049,20.0116684 8.9597519,21 11.5021453,21 C14.0348451,21 16.4189627,20.0116684 18.2128829,18.2228803 C20.0071209,16.4299596 21,14.0460745 21,11.5026067 L21,11.0798081 L20.6154342,11.0798081 L14.2148601,11.0798081 L14.2148601,11.9546516 L20.0948401,11.9546516 C20.0948401,11.9737252 20.0948401,12.0665502 20.0907084,12.0903922 C19.7919547,16.5672897 16.0536887,20.1130765 11.5021453,20.1130765 C9.19818272,20.1130765 7.03781257,19.216934 5.41189361,17.5893181 C3.78066699,15.9686958 2.88183173,13.8095616 2.88183173,11.5022888 C2.88183173,9.20804974 3.78066699,7.0377892 5.41189361,5.41208063 C7.03781257,3.78796153 9.19818272,2.89181909 11.5021453,2.89181909 C11.6014014,2.89181909 11.842788,2.89181909 11.9540578,2.89754118 L11.9540578,2.01322438 Z" id="Path" fill="#FFFFFF"></path>
            <path d="M31.4249691,3.22816519 L28,3.22816519 L28,18.7694929 L38.5200495,18.7694929 L38.5200495,15.7441296 L31.4249691,15.7441296 L31.4249691,3.22816519 Z M46.0549814,12.8469002 L48.844432,12.8469002 L48.844432,15.5644746 C48.3302079,15.7695557 47.3272952,15.9743021 46.3729003,15.9743021 C43.2901089,15.9743021 42.2632566,14.3333194 42.2632566,11.0001673 C42.2632566,7.82157867 43.241272,5.94741244 46.3240634,5.94741244 C48.0371863,5.94741244 49.0155209,6.51180345 49.821809,7.5890643 L51.9514823,5.53691584 C50.6545904,3.58981704 48.3787256,3 46.2509676,3 C41.4544149,3 38.9346846,5.74366963 38.9346846,10.9740721 C38.9346846,16.1793832 41.2102302,19 46.2267087,19 C48.526194,19 50.7771616,18.3850915 52,17.4874856 L52,9.94866702 L46.0549814,9.94866702 L46.0549814,12.8469002 Z" id="Shape" fill="#F5F7F9"></path>
        </g>
    </g>
</svg>