<?xml version="1.0" encoding="UTF-8"?>
<svg width="70px" height="70px" viewBox="0 0 70 70" version="1.1" xmlns="http://www.w3.org/2000/svg" xmlns:xlink="http://www.w3.org/1999/xlink">
    <!-- Generator: Sketch 54 (76480) - https://sketchapp.com -->
    <title>切片</title>
    <desc>Created with Sketch.</desc>
    <g id="页面1" stroke="none" stroke-width="1" fill="none" fill-rule="evenodd">
        <path d="M28,44 L28,40.612655 L31.6437516,40.612655 L31.6437516,30.4510999 L28,30.4510999 L28,27 L35.2875032,27 L35.2875032,40.5487502 L39,40.5487502 L39,43.9358253 L28,43.9358253 L28,44 Z M51,53 L51,30.2169618 L47.500031,30.2169618 L47.500031,49.5000372 L19.5,49.5000372 L19.5,21.5 L38.7829855,21.4999938 L38.7829855,18 L16,18 L16,53 L51,53 Z M51.117418,25.9389714 L51.117418,21.0563363 L56,21.0563363 L56,17.8826178 L51.117418,17.8826178 L51.117418,13 L47.8826966,13 L47.8826966,17.8826178 L43,17.8826178 L43,21.117365 L47.8826966,21.117365 L47.8826966,26 L51.117418,26 L51.117418,25.9389714 Z" id="Shape" fill="#F5F7F9" fill-rule="nonzero"></path>
    </g>
</svg>