<?xml version="1.0" encoding="UTF-8"?>
<svg width="70px" height="70px" viewBox="0 0 70 70" version="1.1" xmlns="http://www.w3.org/2000/svg" xmlns:xlink="http://www.w3.org/1999/xlink">
    <!-- Generator: Sketch 54 (76480) - https://sketchapp.com -->
    <title>切片</title>
    <desc>Created with Sketch.</desc>
    <g id="页面1" stroke="none" stroke-width="1" fill="none" fill-rule="evenodd">
        <g id="Samsung" transform="translate(3.000000, 25.000000)" fill-rule="nonzero">
            <path d="M62.9609617,5.00014226 C63.8189613,9.93796706 50.4299666,16.4039726 33.0521734,19.4422633 C15.6769603,22.4802529 0.895756079,20.9391215 0.0389264165,15.9985861 C-0.817933246,11.0610624 12.5751415,4.59626162 29.9501746,1.55941654 C47.3267678,-1.48137399 62.105362,0.0612332036 62.9609617,5.00014226 Z" id="Path" fill="#F5F7F9"></path>
            <polygon id="Path" fill="#040E3F" points="46.7934199 12.5534767 46.699138 7 48.4166667 7 48.4166667 14 45.9474396 14 44.2327873 8.2556083 44.1950745 8.2556083 44.2909544 14 42.5833333 14 42.5833333 7 45.1605851 7 46.7560267 12.5534767"></polygon>
            <polygon id="Path" fill="#040E3F" points="17.4975413 7.64931835 16.6572653 14 15 14 16.1371267 7 18.8665472 7 20 14 18.3488673 14 17.5319064 7.64931835"></polygon>
            <polygon id="Path" fill="#040E3F" points="24.5189766 12.3515567 25.2965965 7 27.864018 7 28 14 26.4267839 14 26.3853224 7.70670597 26.3525591 7.70670597 25.3003657 14 23.7033745 14 22.6499343 7.70670597 22.6159533 7.70670597 22.5769274 14 21 14 21.1396932 7 23.7083035 7 24.4847636 12.3515567"></polygon>
            <path d="M12.2107972,11.8990668 C12.278526,12.0571109 12.2577966,12.2609126 12.225986,12.3837354 C12.1679373,12.6004817 12.0117503,12.8226465 11.5528694,12.8226465 C11.1188892,12.8226465 10.8562531,12.5875371 10.8562531,12.2296048 L10.8562531,11.5971273 L9.00140107,11.5971273 L9,12.1028684 C9,13.5598847 10.213546,14 11.5141809,14 C12.7650461,14 13.7947659,13.5963102 13.9578308,12.5065583 C14.0421495,11.942115 13.9785921,11.5721412 13.950921,11.4324603 C13.6593083,10.0642498 11.0345706,9.65544231 10.8396632,8.89080979 C10.8065152,8.76015998 10.8161953,8.62047908 10.8327534,8.54582204 C10.8811538,8.33810691 11.0318003,8.10811508 11.4644112,8.10811508 C11.8680137,8.10811508 12.1071183,8.34472971 12.1071183,8.70145788 C12.1071183,8.82157141 12.1071183,9.10514772 12.1071183,9.10514772 L13.8306841,9.10514772 L13.8306841,8.64666925 C13.8306841,7.22216488 12.4789421,7 11.5003613,7 C10.2702254,7 9.26537462,7.38442352 9.0815484,8.44798521 C9.03181056,8.74209779 9.02490076,9.00339741 9.09676907,9.33122608 C9.39946299,10.6654195 11.8541941,11.0522513 12.2107972,11.8990668 Z" id="Path" fill="#040E3F"></path>
            <path d="M33.2115572,11.901034 C33.2800455,12.0594752 33.2575376,12.2601877 33.2269911,12.3842645 C33.1697568,12.6035277 33.0134875,12.8240073 32.5527185,12.8240073 C32.1215312,12.8240073 31.8578672,12.5861934 31.8578672,12.2325137 L31.8562595,11.5987488 L30.0028939,11.5987488 L30,12.103267 C30,13.5605613 31.2144625,14 32.513812,14 C33.7630009,14 34.7928986,13.5973586 34.9562417,12.5071249 C35.0414502,11.9408724 34.9813219,11.5725954 34.9504539,11.4339213 C34.6575296,10.0651229 32.0350366,9.65579112 31.8395393,8.89004258 C31.806099,8.75805891 31.8157452,8.61968894 31.8324654,8.54822313 C31.8829474,8.33565036 32.0321427,8.11000087 32.4649376,8.11000087 C32.8697585,8.11000087 33.1054484,8.34234078 33.1054484,8.70149448 C33.1054484,8.82161786 33.1054484,9.10535233 33.1054484,9.10535233 L34.8334128,9.10535233 L34.8334128,8.64584238 C34.8334128,7.2229125 33.4794013,7 32.4996641,7 C31.2716969,7 30.2652718,7.38257016 30.0839223,8.45060388 C30.0334403,8.74376575 30.0279741,9.0022591 30.1006425,9.33252237 C30.4006408,10.6669563 32.8556106,11.0550004 33.2115572,11.901034 Z" id="Path" fill="#040E3F"></path>
            <path d="M38.5020437,12.7816426 C38.9954369,12.7816426 39.1490899,12.4555372 39.1831622,12.288416 C39.1972498,12.2151831 39.2015088,12.1172263 39.2001983,12.0289713 L39.2001983,7 L40.9991506,7 L40.9991506,11.8740555 C41.0034097,11.99924 40.9906326,12.255868 40.983425,12.3197121 C40.8569643,13.5884562 39.8072751,14 38.5004056,14 C37.1922255,14 36.1412259,13.5884562 36.0160757,12.3197121 C36.0105062,12.255868 35.9977291,11.9976751 36.00035,11.8740555 L36.00035,7 L37.7979919,7 L37.7979919,12.0277194 C37.7979919,12.1159744 37.8009404,12.2151831 37.815028,12.2871641 C37.8549974,12.4542853 38.0040638,12.7816426 38.5020437,12.7816426 Z" id="Path" fill="#040E3F"></path>
            <path d="M52.4915781,12.7968942 C53.0004535,12.7968942 53.1789324,12.4908059 53.2113242,12.3131269 C53.223957,12.2367588 53.2281679,12.1431462 53.2268722,12.0590797 L53.2268722,11.0887735 L52.5055066,11.0887735 L52.5055066,10.1129245 L55,10.1129245 L55,11.9081911 C54.9983804,12.033829 54.9957891,12.1259018 54.9744105,12.3491554 C54.8577999,13.5655024 53.7470847,14 52.5012957,14 C51.2529153,14 50.1447914,13.5655024 50.0252656,12.3491554 C50.0058305,12.1259018 50.0029153,12.033829 50,11.9081911 L50.0016196,9.09304065 C50.0016196,8.97417737 50.0168437,8.76416505 50.0310961,8.65207637 C50.1872247,7.40216435 51.2529153,7 52.5012957,7 C53.7483804,7 54.8409562,7.39970086 54.9701995,8.65207637 C54.9928738,8.86455217 54.9857476,9.09304065 54.9857476,9.09304065 L54.9857476,9.31629421 L53.2129438,9.31629421 L53.2129438,8.94215203 C53.2142394,8.94338378 53.2100285,8.78294915 53.1902695,8.68810487 C53.160793,8.53967975 53.0257191,8.20033433 52.4886629,8.20033433 C51.9755766,8.20033433 51.8265742,8.52089565 51.7886758,8.68810487 C51.7672972,8.77617456 51.7588754,8.89534577 51.7588754,9.00343129 L51.7588754,12.0618511 C51.7575797,12.1459176 51.7630863,12.2395302 51.7773387,12.3155904 C51.8055196,12.4908059 51.9827028,12.7968942 52.4915781,12.7968942 Z" id="Path" fill="#040E3F"></path>
        </g>
    </g>
</svg>