<?xml version="1.0" encoding="UTF-8"?>
<svg width="72px" height="12px" viewBox="0 0 72 12" version="1.1" xmlns="http://www.w3.org/2000/svg" xmlns:xlink="http://www.w3.org/1999/xlink">
    <!-- Generator: Sketch 54 (76480) - https://sketchapp.com -->
    <title>Group 8</title>
    <desc>Created with Sketch.</desc>
    <g id="Collection" stroke="none" stroke-width="1" fill="none" fill-rule="evenodd">
        <g id="Desktop-/-Product-Collection-/-Mobile" transform="translate(-34.000000, -339.000000)">
            <g id="Group-15">
                <g id="Group-7">
                    <g id="Group">
                        <g id="header/headerMobile/White">
                            <g id="Group">
                                <g id="Color">
                                    <g id="Group-3" transform="translate(-0.000000, 0.000000)">
                                        <g id="Group-5">
                                            <g id="Group-8" transform="translate(34.000000, 332.000000)">
                                                <text id="Filters" font-family="Helvetica" font-size="14" font-weight="normal" line-spacing="24" fill="#000000">
                                                    <tspan x="24" y="14">Filters</tspan>
                                                </text>
                                                <path d="M5.2921739,7 C4.02191742,7.00118013 2.91968647,7.88971875 2.63130433,9.145 L0.628260856,9.145 C0.281281964,9.14500001 4.24926617e-17,9.43041848 0,9.7825 C-4.24926592e-17,10.1345815 0.281281964,10.42 0.628260856,10.42 L2.63130433,10.42 C2.92390328,11.6709905 4.02506762,12.5541997 5.2921739,12.5541997 C6.55928018,12.5541997 7.66044452,11.6709905 7.95304347,10.42 L15.7286956,10.42 C16.0756745,10.42 16.3569565,10.1345815 16.3569565,9.7825 C16.3569565,9.43041847 16.0756745,9.145 15.7286956,9.145 L7.95304347,9.145 C7.66466132,7.88971875 6.56243038,7.00118013 5.2921739,7 Z M5.2921739,11.29 C4.47575297,11.29 3.81391303,10.6184271 3.81391303,9.79 C3.81391303,8.96157288 4.47575297,8.29 5.2921739,8.29 C6.10859483,8.29 6.77043477,8.96157288 6.77043477,9.79 C6.77043477,10.6184271 6.10859483,11.29 5.2921739,11.29 L5.2921739,11.29 Z" id="Shape" fill="#1AB4E7" fill-rule="nonzero"></path>
                                                <path d="M11.0869565,13.225 C9.81670003,13.2261801 8.71446908,14.1147188 8.42608694,15.37 L0.628260856,15.37 C0.281281969,15.37 1.32395144e-08,15.6554185 1.32395144e-08,16.0075 C1.32395143e-08,16.3595815 0.281281969,16.645 0.628260856,16.645 L8.40391303,16.645 C8.69651197,17.8959905 9.79767631,18.7791997 11.0647826,18.7791997 C12.3318889,18.7791997 13.4330532,17.8959905 13.7256522,16.645 L15.7286956,16.645 C16.0756745,16.645 16.3569565,16.3595815 16.3569565,16.0075 C16.3569565,15.6554185 16.0756745,15.37 15.7286956,15.37 L13.7256522,15.37 C13.4391939,14.1228593 12.3489122,13.2365675 11.0869565,13.225 L11.0869565,13.225 Z M11.0869565,17.5 C10.2705356,17.5 9.60869564,16.8284271 9.60869564,16 C9.60869564,15.1715729 10.2705356,14.5 11.0869565,14.5 C11.9033774,14.5 12.5652174,15.1715729 12.5652174,16 C12.5652174,16.8284271 11.9033774,17.5 11.0869565,17.5 Z" id="Shape" fill="#1AB4E7" fill-rule="nonzero"></path>
                                            </g>
                                        </g>
                                    </g>
                                </g>
                            </g>
                        </g>
                    </g>
                </g>
            </g>
        </g>
    </g>
</svg>